<?xml version="1.0" encoding="UTF-8" standalone="no"?>
<!-- Created with Inkscape (http://www.inkscape.org/) -->

<svg
   xmlns:dc="http://purl.org/dc/elements/1.1/"
   xmlns:cc="http://creativecommons.org/ns#"
   xmlns:rdf="http://www.w3.org/1999/02/22-rdf-syntax-ns#"
   xmlns:svg="http://www.w3.org/2000/svg"
   xmlns="http://www.w3.org/2000/svg"
   xmlns:xlink="http://www.w3.org/1999/xlink"
   xmlns:sodipodi="http://sodipodi.sourceforge.net/DTD/sodipodi-0.dtd"
   xmlns:inkscape="http://www.inkscape.org/namespaces/inkscape"
   width="42.333332mm"
   height="42.333332mm"
   viewBox="0 0 42.333332 42.333332"
   version="1.1"
   id="svg64"
   inkscape:version="0.92.2 5c3e80d, 2017-08-06"
   sodipodi:docname="Einkaufsliste_Pikto.svg">
  <defs
     id="defs58">
    <path
       d="m48.577 500.52c-1.459-1.088-35.907-40.444-35.907-40.444l-8.679 49.653s46.044-8.12 44.586-9.21z"
       class="st0"
       id="d" />
    <polygon
       points="419.69 12.468 390.19 30.495 39.479 384.48 18.175 487.73 49.313 400.87 401.66 38.689 416.41 27.217 445.91 22.301"
       class="st0"
       id="b" />
    <defs
       id="defs2957">
      <path
         style="enable-background:new"
         inkscape:connector-curvature="0"
         id="path2995"
         class="st0"
         d="M 48.577,500.52 C 47.118,499.432 12.67,460.076 12.67,460.076 l -8.679,49.653 c 0,0 46.044,-8.12 44.586,-9.21 z" />
    </defs>
    <clipPath
       id="c">
      <use
         height="100%"
         width="100%"
         y="0"
         x="0"
         xlink:href="#d"
         id="use2959" />
    </clipPath>
  </defs>
  <sodipodi:namedview
     id="base"
     pagecolor="#ffffff"
     bordercolor="#666666"
     borderopacity="1.0"
     inkscape:pageopacity="0.0"
     inkscape:pageshadow="2"
     inkscape:zoom="2.8"
     inkscape:cx="110.07816"
     inkscape:cy="74.485801"
     inkscape:document-units="mm"
     inkscape:current-layer="layer1"
     showgrid="true"
     inkscape:window-width="1440"
     inkscape:window-height="826"
     inkscape:window-x="0"
     inkscape:window-y="0"
     inkscape:window-maximized="1"
     inkscape:measure-start="-220,185"
     inkscape:measure-end="0,0">
    <inkscape:grid
       type="xygrid"
       id="grid2810" />
  </sodipodi:namedview>
  <metadata
     id="metadata61">
    <rdf:RDF>
      <cc:Work
         rdf:about="">
        <dc:format>image/svg+xml</dc:format>
        <dc:type
           rdf:resource="http://purl.org/dc/dcmitype/StillImage" />
        <dc:title></dc:title>
      </cc:Work>
    </rdf:RDF>
  </metadata>
  <g
     inkscape:label="Ebene 1"
     inkscape:groupmode="layer"
     id="layer1"
     transform="translate(-42.291416,-154.46825)">
    <g
       id="g7378">
      <path
         style="fill:none;stroke:#000000;stroke-width:0.63499999;stroke-miterlimit:4;stroke-dasharray:none;stroke-opacity:1"
         d="m 47.741673,154.46825 h 31.432819 c 3.019442,0 5.450256,2.43081 5.450256,5.45025 v 31.43282 c 0,3.01944 -2.430814,5.45026 -5.450256,5.45026 H 47.741673 c -3.019443,0 -5.450257,-2.43082 -5.450257,-5.45026 V 159.9185 c 0,-3.01944 2.430814,-5.45025 5.450257,-5.45025 z"
         id="rect66" />
      <g
         transform="matrix(1.4221354,0,0,1.4221354,47.970036,154.50132)"
         id="g2876"
         style="fill:#000000">
        <path
           inkscape:connector-curvature="0"
           d="m 7,18 c -1.1,0 -1.99,0.9 -1.99,2 0,1.1 0.89,2 1.99,2 1.1,0 2,-0.9 2,-2 C 9,18.9 8.1,18 7,18 Z M 1,2 v 2 h 2 l 3.6,7.59 -1.35,2.45 C 5.09,14.32 5,14.65 5,15 c 0,1.1 0.9,2 2,2 H 19 V 15 H 7.42 C 7.28,15 7.17,14.89 7.17,14.75 L 7.2,14.63 8.1,13 h 7.45 c 0.75,0 1.41,-0.41 1.75,-1.03 L 20.88,5.48 C 20.96,5.34 21,5.17 21,5 21,4.45 20.55,4 20,4 H 5.21 L 4.27,2 Z m 16,16 c -1.1,0 -1.99,0.9 -1.99,2 0,1.1 0.89,2 1.99,2 1.1,0 2,-0.9 2,-2 0,-1.1 -0.9,-2 -2,-2 z"
           id="path2862" />
        <path
           style="fill:none"
           inkscape:connector-curvature="0"
           d="M 0,0 H 24 V 24 H 0 Z"
           id="path2864" />
      </g>
      <g
         transform="matrix(0.05711944,0,0,0.05711944,-27.038971,118.6779)"
         id="g3013">
        <path
           inkscape:connector-curvature="0"
           id="path6740"
           d=""
           style="fill:#000000" />
        <path
           inkscape:connector-curvature="0"
           id="path6738"
           d=""
           style="fill:#000000" />
        <g
           aria-label="Einkaufsliste"
           style="font-style:normal;font-weight:normal;font-size:80.28984833px;line-height:1.25;font-family:sans-serif;letter-spacing:0px;word-spacing:0px;fill:#000000;fill-opacity:1;stroke:none;stroke-width:4.63210678"
           id="text7367">
          <path
             d="m 1388.6146,1292.7604 h -26.2275 v 14.1134 h 24.1496 q 2.6659,0 3.9597,1.2153 1.3329,1.1762 1.3329,3.1364 0,1.9602 -1.2937,3.2147 -1.2938,1.2153 -3.9989,1.2153 h -24.1496 v 16.3481 h 27.1292 q 2.7442,0 4.1164,1.2937 1.4113,1.2545 1.4113,3.3716 0,2.0386 -1.4113,3.3323 -1.3722,1.2545 -4.1164,1.2545 h -31.6377 q -3.8028,0 -5.4886,-1.6857 -1.6465,-1.6858 -1.6465,-5.4494 v -43.2028 q 0,-2.5091 0.7448,-4.0773 0.7449,-1.6073 2.3131,-2.313 1.6073,-0.7449 4.0772,-0.7449 h 30.736 q 2.7834,0 4.1164,1.2546 1.3721,1.2153 1.3721,3.2147 0,2.0386 -1.3721,3.2931 -1.333,1.2154 -4.1164,1.2154 z"
             style="font-style:normal;font-variant:normal;font-weight:normal;font-stretch:normal;font-size:80.28984833px;font-family:'Arial Rounded MT Bold';-inkscape-font-specification:'Arial Rounded MT Bold, ';stroke-width:4.63210678"
             id="path7381" />
          <path
             d="m 1414.3324,1304.796 v 30.932 q 0,3.2147 -1.529,4.8613 -1.5289,1.6465 -3.8812,1.6465 -2.3522,0 -3.8419,-1.6857 -1.4506,-1.6858 -1.4506,-4.8221 v -30.6184 q 0,-3.1755 1.4506,-4.7829 1.4897,-1.6073 3.8419,-1.6073 2.3523,0 3.8812,1.6073 1.529,1.6074 1.529,4.4693 z m -5.2925,-11.0555 q -2.2347,0 -3.842,-1.3722 -1.5682,-1.3721 -1.5682,-3.8812 0,-2.2738 1.6074,-3.7244 1.6465,-1.4897 3.8028,-1.4897 2.0778,0 3.6851,1.3329 1.6074,1.333 1.6074,3.8812 0,2.4699 -1.5682,3.8812 -1.5681,1.3722 -3.7243,1.3722 z"
             style="font-style:normal;font-variant:normal;font-weight:normal;font-stretch:normal;font-size:80.28984833px;font-family:'Arial Rounded MT Bold';-inkscape-font-specification:'Arial Rounded MT Bold, ';stroke-width:4.63210678"
             id="path7383" />
          <path
             d="m 1435.1497,1304.6392 v 1.2937 q 2.8227,-3.7244 6.1551,-5.4494 3.3715,-1.7641 7.7232,-1.7641 4.234,0 7.5663,1.8426 3.3324,1.8425 4.979,5.2141 1.0585,1.9602 1.3721,4.234 0.3136,2.2739 0.3136,5.8022 v 19.9157 q 0,3.2147 -1.4897,4.8613 -1.4506,1.6465 -3.8028,1.6465 -2.3915,0 -3.8812,-1.6857 -1.4898,-1.6858 -1.4898,-4.8221 v -17.8379 q 0,-5.2925 -1.4897,-8.076 -1.4506,-2.8227 -5.8414,-2.8227 -2.8619,0 -5.2142,1.725 -2.3522,1.6858 -3.4499,4.6653 -0.7841,2.3914 -0.7841,8.9385 v 13.4078 q 0,3.2539 -1.5289,4.9005 -1.4898,1.6073 -3.8812,1.6073 -2.3131,0 -3.8028,-1.6857 -1.4898,-1.6858 -1.4898,-4.8221 v -30.932 q 0,-3.0579 1.3329,-4.5477 1.333,-1.5289 3.646,-1.5289 1.4114,0 2.5483,0.6664 1.1369,0.6665 1.8034,1.9994 0.7056,1.333 0.7056,3.254 z"
             style="font-style:normal;font-variant:normal;font-weight:normal;font-stretch:normal;font-size:80.28984833px;font-family:'Arial Rounded MT Bold';-inkscape-font-specification:'Arial Rounded MT Bold, ';stroke-width:4.63210678"
             id="path7385" />
          <path
             d="m 1500.5421,1337.3353 -9.4482,-15.5248 -5.8022,5.4886 v 8.5073 q 0,3.0971 -1.6466,4.7829 -1.6073,1.6465 -3.7244,1.6465 -2.4698,0 -3.8812,-1.6465 -1.4113,-1.6466 -1.4113,-4.8613 v -45.6335 q 0,-3.5676 1.3721,-5.4102 1.3722,-1.8818 3.9204,-1.8818 2.4699,0 3.9204,1.6858 1.4506,1.6858 1.4506,4.9789 v 25.9531 l 12.0356,-12.6237 q 2.2347,-2.3523 3.4108,-3.2147 1.1761,-0.8625 2.8619,-0.8625 1.9994,0 3.3323,1.2937 1.333,1.2545 1.333,3.1755 0,2.3523 -4.3517,6.2727 l -5.6846,5.2141 10.9771,17.2498 q 1.2154,1.921 1.725,2.9403 0.5489,0.9801 0.5489,1.8818 0,2.5482 -1.4114,4.038 -1.3721,1.4505 -3.6459,1.4505 -1.9602,0 -3.0187,-1.0585 -1.0586,-1.0585 -2.8619,-3.842 z"
             style="font-style:normal;font-variant:normal;font-weight:normal;font-stretch:normal;font-size:80.28984833px;font-family:'Arial Rounded MT Bold';-inkscape-font-specification:'Arial Rounded MT Bold, ';stroke-width:4.63210678"
             id="path7387" />
          <path
             d="m 1544.1369,1336.1984 q -3.8812,3.0187 -7.5271,4.5477 -3.6068,1.4897 -8.1153,1.4897 -4.1164,0 -7.2527,-1.6073 -3.0971,-1.6466 -4.7829,-4.4301 -1.6858,-2.7835 -1.6858,-6.0374 0,-4.3909 2.7835,-7.488 2.7835,-3.0971 7.6448,-4.1556 1.0193,-0.2352 5.0573,-1.0585 4.038,-0.8233 6.8999,-1.4898 2.9011,-0.7056 6.2727,-1.6857 -0.1961,-4.2341 -1.725,-6.1943 -1.4898,-1.9994 -6.2334,-1.9994 -4.0773,0 -6.1551,1.1369 -2.0386,1.137 -3.5283,3.4108 -1.4506,2.2738 -2.0779,3.0187 -0.588,0.7057 -2.5874,0.7057 -1.8034,0 -3.1363,-1.1369 -1.2938,-1.1762 -1.2938,-2.9795 0,-2.8227 1.9994,-5.4886 1.9994,-2.6659 6.2335,-4.3909 4.234,-1.7249 10.5459,-1.7249 7.0567,0 11.0947,1.6857 4.038,1.6466 5.6846,5.2534 1.6857,3.6067 1.6857,9.5658 0,3.7635 -0.039,6.3902 0,2.6267 -0.039,5.8414 0,3.0187 0.9801,6.3119 1.0193,3.2539 1.0193,4.1948 0,1.6466 -1.5681,3.0187 -1.529,1.3329 -3.4892,1.3329 -1.6465,0 -3.2539,-1.5289 -1.6074,-1.5682 -3.4108,-4.5085 z m -0.7056,-15.4856 q -2.3523,0.8625 -6.8607,1.8426 -4.4693,0.9409 -6.1943,1.4114 -1.7249,0.4312 -3.2931,1.7641 -1.5682,1.2938 -1.5682,3.646 0,2.4307 1.8426,4.1556 1.8426,1.6858 4.8221,1.6858 3.1755,0 5.8414,-1.3721 2.7051,-1.4114 3.9596,-3.6068 1.4506,-2.4306 1.4506,-7.9976 z"
             style="font-style:normal;font-variant:normal;font-weight:normal;font-stretch:normal;font-size:80.28984833px;font-family:'Arial Rounded MT Bold';-inkscape-font-specification:'Arial Rounded MT Bold, ';stroke-width:4.63210678"
             id="path7389" />
          <path
             d="m 1592.6323,1336.1984 v -1.3721 q -1.921,2.4306 -4.038,4.0772 -2.117,1.6466 -4.6261,2.4306 -2.509,0.8233 -5.7238,0.8233 -3.8812,0 -6.9783,-1.6073 -3.0579,-1.6074 -4.7437,-4.4301 -1.9994,-3.4107 -1.9994,-9.801 v -21.2094 q 0,-3.2147 1.4506,-4.7829 1.4505,-1.6073 3.842,-1.6073 2.4306,0 3.9204,1.6073 1.4897,1.6074 1.4897,4.7829 v 17.1322 q 0,3.7244 0.6273,6.2726 0.6273,2.5091 2.2346,3.9596 1.6466,1.4114 4.4301,1.4114 2.7051,0 5.0965,-1.6074 2.3915,-1.6074 3.4892,-4.1948 0.9017,-2.2738 0.9017,-9.9578 v -13.0158 q 0,-3.1755 1.4897,-4.7829 1.4898,-1.6073 3.8812,-1.6073 2.3915,0 3.842,1.6073 1.4506,1.5682 1.4506,4.7829 v 31.0104 q 0,3.0579 -1.4114,4.5869 -1.3721,1.5289 -3.5676,1.5289 -2.1954,0 -3.6459,-1.5681 -1.4114,-1.6074 -1.4114,-4.4693 z"
             style="font-style:normal;font-variant:normal;font-weight:normal;font-stretch:normal;font-size:80.28984833px;font-family:'Arial Rounded MT Bold';-inkscape-font-specification:'Arial Rounded MT Bold, ';stroke-width:4.63210678"
             id="path7391" />
          <path
             d="m 1612.4304,1299.6603 h 2.5482 v -3.2148 q 0,-5.0181 1.2545,-7.9584 1.2938,-2.9795 4.3125,-4.3124 3.0579,-1.3722 8.3504,-1.3722 9.3698,0 9.3698,4.5869 0,1.4898 -0.9801,2.5483 -0.9801,1.0585 -2.313,1.0585 -0.6273,0 -2.1563,-0.2353 -1.5289,-0.2352 -2.5874,-0.2352 -2.9011,0 -3.7244,1.725 -0.8233,1.6858 -0.8233,4.8613 v 2.5483 h 2.6267 q 6.1158,0 6.1158,3.6851 0,2.6267 -1.6466,3.3324 -1.6073,0.7057 -4.4692,0.7057 h -2.6267 v 28.3445 q 0,3.1755 -1.5289,4.8613 -1.4898,1.6465 -3.8812,1.6465 -2.2739,0 -3.8028,-1.6465 -1.4898,-1.6858 -1.4898,-4.8613 v -28.3445 h -2.9403 q -2.3914,0 -3.6852,-1.0586 -1.2937,-1.0977 -1.2937,-2.8226 0,-3.842 5.371,-3.842 z"
             style="font-style:normal;font-variant:normal;font-weight:normal;font-stretch:normal;font-size:80.28984833px;font-family:'Arial Rounded MT Bold';-inkscape-font-specification:'Arial Rounded MT Bold, ';stroke-width:4.63210678"
             id="path7393" />
          <path
             d="m 1674.5687,1328.24 q 0,4.4301 -2.1562,7.6056 -2.1562,3.1363 -6.3902,4.7829 -4.1949,1.6073 -10.2323,1.6073 -5.763,0 -9.8794,-1.7641 -4.1164,-1.7642 -6.0766,-4.3909 -1.9602,-2.6659 -1.9602,-5.3317 0,-1.7642 1.2545,-3.0188 1.2545,-1.2545 3.1755,-1.2545 1.6858,0 2.5875,0.8233 0.9017,0.8233 1.725,2.313 1.6465,2.8619 3.9204,4.2733 2.313,1.4113 6.2726,1.4113 3.2147,0 5.2534,-1.4113 2.0778,-1.4506 2.0778,-3.2932 0,-2.8226 -2.1563,-4.1164 -2.117,-1.2937 -7.0175,-2.4698 -5.5277,-1.3722 -9.0169,-2.8619 -3.45,-1.529 -5.5278,-3.9988 -2.0778,-2.4699 -2.0778,-6.0767 0,-3.2147 1.921,-6.0766 1.921,-2.8619 5.6454,-4.5477 3.7636,-1.7249 9.0561,-1.7249 4.1556,0 7.4488,0.8625 3.3323,0.8624 5.5278,2.313 2.2346,1.4505 3.3715,3.2147 1.1761,1.7642 1.1761,3.45 0,1.8426 -1.2545,3.0187 -1.2153,1.1761 -3.4892,1.1761 -1.6465,0 -2.8227,-0.9409 -1.1369,-0.9409 -2.6266,-2.8227 -1.2153,-1.5681 -2.8619,-2.509 -1.6466,-0.9409 -4.4693,-0.9409 -2.9011,0 -4.8221,1.2545 -1.921,1.2153 -1.921,3.0579 0,1.6858 1.4114,2.7835 1.4113,1.0585 3.8028,1.7642 2.3914,0.7057 6.5862,1.725 4.979,1.2153 8.1153,2.9011 3.1755,1.6857 4.7829,3.9988 1.6465,2.2738 1.6465,5.2141 z"
             style="font-style:normal;font-variant:normal;font-weight:normal;font-stretch:normal;font-size:80.28984833px;font-family:'Arial Rounded MT Bold';-inkscape-font-specification:'Arial Rounded MT Bold, ';stroke-width:4.63210678"
             id="path7395" />
          <path
             d="m 1683.7033,1335.728 v -46.4176 q 0,-3.2147 1.4113,-4.8613 1.4506,-1.6466 3.8812,-1.6466 2.4307,0 3.9204,1.6466 1.4898,1.6074 1.4898,4.8613 v 46.4176 q 0,3.2539 -1.529,4.9005 -1.4897,1.6073 -3.8812,1.6073 -2.3522,0 -3.842,-1.6857 -1.4505,-1.6858 -1.4505,-4.8221 z"
             style="font-style:normal;font-variant:normal;font-weight:normal;font-stretch:normal;font-size:80.28984833px;font-family:'Arial Rounded MT Bold';-inkscape-font-specification:'Arial Rounded MT Bold, ';stroke-width:4.63210678"
             id="path7397" />
          <path
             d="m 1716.2034,1304.796 v 30.932 q 0,3.2147 -1.5289,4.8613 -1.529,1.6465 -3.8812,1.6465 -2.3523,0 -3.842,-1.6857 -1.4506,-1.6858 -1.4506,-4.8221 v -30.6184 q 0,-3.1755 1.4506,-4.7829 1.4897,-1.6073 3.842,-1.6073 2.3522,0 3.8812,1.6073 1.5289,1.6074 1.5289,4.4693 z m -5.2925,-11.0555 q -2.2346,0 -3.842,-1.3722 -1.5682,-1.3721 -1.5682,-3.8812 0,-2.2738 1.6074,-3.7244 1.6466,-1.4897 3.8028,-1.4897 2.0778,0 3.6852,1.3329 1.6073,1.333 1.6073,3.8812 0,2.4699 -1.5681,3.8812 -1.5682,1.3722 -3.7244,1.3722 z"
             style="font-style:normal;font-variant:normal;font-weight:normal;font-stretch:normal;font-size:80.28984833px;font-family:'Arial Rounded MT Bold';-inkscape-font-specification:'Arial Rounded MT Bold, ';stroke-width:4.63210678"
             id="path7399" />
          <path
             d="m 1761.7585,1328.24 q 0,4.4301 -2.1562,7.6056 -2.1562,3.1363 -6.3903,4.7829 -4.1948,1.6073 -10.2322,1.6073 -5.763,0 -9.8795,-1.7641 -4.1164,-1.7642 -6.0766,-4.3909 -1.9602,-2.6659 -1.9602,-5.3317 0,-1.7642 1.2546,-3.0188 1.2545,-1.2545 3.1755,-1.2545 1.6858,0 2.5874,0.8233 0.9017,0.8233 1.725,2.313 1.6466,2.8619 3.9204,4.2733 2.3131,1.4113 6.2727,1.4113 3.2147,0 5.2533,-1.4113 2.0778,-1.4506 2.0778,-3.2932 0,-2.8226 -2.1562,-4.1164 -2.117,-1.2937 -7.0175,-2.4698 -5.5278,-1.3722 -9.0169,-2.8619 -3.45,-1.529 -5.5278,-3.9988 -2.0778,-2.4699 -2.0778,-6.0767 0,-3.2147 1.921,-6.0766 1.921,-2.8619 5.6453,-4.5477 3.7636,-1.7249 9.0562,-1.7249 4.1556,0 7.4487,0.8625 3.3324,0.8624 5.5278,2.313 2.2346,1.4505 3.3716,3.2147 1.1761,1.7642 1.1761,3.45 0,1.8426 -1.2545,3.0187 -1.2154,1.1761 -3.4892,1.1761 -1.6466,0 -2.8227,-0.9409 -1.1369,-0.9409 -2.6267,-2.8227 -1.2153,-1.5681 -2.8619,-2.509 -1.6465,-0.9409 -4.4692,-0.9409 -2.9011,0 -4.8221,1.2545 -1.921,1.2153 -1.921,3.0579 0,1.6858 1.4113,2.7835 1.4114,1.0585 3.8028,1.7642 2.3915,0.7057 6.5863,1.725 4.9789,1.2153 8.1152,2.9011 3.1756,1.6857 4.7829,3.9988 1.6466,2.2738 1.6466,5.2141 z"
             style="font-style:normal;font-variant:normal;font-weight:normal;font-stretch:normal;font-size:80.28984833px;font-family:'Arial Rounded MT Bold';-inkscape-font-specification:'Arial Rounded MT Bold, ';stroke-width:4.63210678"
             id="path7401" />
          <path
             d="m 1771.4811,1299.6603 h 1.1761 v -6.4295 q 0,-2.5875 0.1176,-4.038 0.1568,-1.4898 0.7841,-2.5483 0.6273,-1.0977 1.8034,-1.7642 1.1761,-0.7056 2.6267,-0.7056 2.0386,0 3.6851,1.5289 1.0978,1.0193 1.3722,2.5091 0.3136,1.4505 0.3136,4.1556 v 7.292 h 3.9204 q 2.2738,0 3.45,1.0977 1.2153,1.0585 1.2153,2.7443 0,2.1562 -1.725,3.0187 -1.6858,0.8625 -4.8613,0.8625 h -1.9994 v 19.6804 q 0,2.509 0.1568,3.8812 0.196,1.3329 0.9409,2.1954 0.7841,0.8233 2.5091,0.8233 0.9409,0 2.5482,-0.3136 1.6074,-0.3529 2.5091,-0.3529 1.2937,0 2.313,1.0585 1.0585,1.0193 1.0585,2.5483 0,2.5875 -2.8226,3.9596 -2.8227,1.3721 -8.1153,1.3721 -5.0181,0 -7.6056,-1.6857 -2.5874,-1.6858 -3.4107,-4.6653 -0.7841,-2.9795 -0.7841,-7.9584 v -20.5429 h -1.4113 q -2.3131,0 -3.5284,-1.0978 -1.2153,-1.0977 -1.2153,-2.7834 0,-1.6858 1.2545,-2.7443 1.2937,-1.0977 3.7244,-1.0977 z"
             style="font-style:normal;font-variant:normal;font-weight:normal;font-stretch:normal;font-size:80.28984833px;font-family:'Arial Rounded MT Bold';-inkscape-font-specification:'Arial Rounded MT Bold, ';stroke-width:4.63210678"
             id="path7403" />
          <path
             d="m 1829.1502,1323.1043 h -20.9349 q 0.039,3.6459 1.4505,6.4294 1.4506,2.7835 3.8028,4.1949 2.3915,1.4113 5.2534,1.4113 1.921,0 3.4891,-0.4312 1.6074,-0.4705 3.0971,-1.4114 1.4898,-0.9801 2.7443,-2.0778 1.2545,-1.0977 3.254,-2.9795 0.8232,-0.7057 2.3522,-0.7057 1.6466,0 2.6659,0.9017 1.0193,0.9017 1.0193,2.5483 0,1.4505 -1.1369,3.4107 -1.137,1.921 -3.45,3.7244 -2.2738,1.7642 -5.763,2.9403 -3.4499,1.1761 -7.9584,1.1761 -10.3107,0 -16.0345,-5.8806 -5.7237,-5.8806 -5.7237,-15.956 0,-4.7437 1.4113,-8.7817 1.4113,-4.0772 4.1164,-6.9783 2.7051,-2.9011 6.6647,-4.4301 3.9596,-1.5681 8.7817,-1.5681 6.2727,0 10.7419,2.6658 4.5085,2.6267 6.7431,6.8215 2.2346,4.1949 2.2346,8.5465 0,4.038 -2.313,5.2534 -2.313,1.1761 -6.5079,1.1761 z m -20.9349,-6.0767 h 19.406 q -0.3921,-5.4885 -2.9795,-8.1936 -2.5483,-2.7443 -6.7431,-2.7443 -3.9988,0 -6.5863,2.7835 -2.5483,2.7443 -3.0971,8.1544 z"
             style="font-style:normal;font-variant:normal;font-weight:normal;font-stretch:normal;font-size:80.28984833px;font-family:'Arial Rounded MT Bold';-inkscape-font-specification:'Arial Rounded MT Bold, ';stroke-width:4.63210678"
             id="path7405" />
        </g>
      </g>
    </g>
  </g>
  <style
     id="style2954"
     type="text/css">.st0{enable-background:new ;}</style>
</svg>
