<?xml version="1.0" encoding="UTF-8" standalone="no"?>
<!-- Created with Inkscape (http://www.inkscape.org/) -->

<svg
   xmlns:dc="http://purl.org/dc/elements/1.1/"
   xmlns:cc="http://creativecommons.org/ns#"
   xmlns:rdf="http://www.w3.org/1999/02/22-rdf-syntax-ns#"
   xmlns:svg="http://www.w3.org/2000/svg"
   xmlns="http://www.w3.org/2000/svg"
   xmlns:sodipodi="http://sodipodi.sourceforge.net/DTD/sodipodi-0.dtd"
   xmlns:inkscape="http://www.inkscape.org/namespaces/inkscape"
   width="42.333332mm"
   height="42.333332mm"
   viewBox="0 0 42.333332 42.333332"
   version="1.1"
   id="svg64"
   inkscape:version="0.92.2 5c3e80d, 2017-08-06"
   sodipodi:docname="Einstellungen_Pikto.svg">
  <defs
     id="defs58" />
  <sodipodi:namedview
     id="base"
     pagecolor="#ffffff"
     bordercolor="#666666"
     borderopacity="1.0"
     inkscape:pageopacity="0.0"
     inkscape:pageshadow="2"
     inkscape:zoom="1.4"
     inkscape:cx="37.522272"
     inkscape:cy="155.56493"
     inkscape:document-units="mm"
     inkscape:current-layer="layer1"
     showgrid="true"
     inkscape:window-width="1440"
     inkscape:window-height="826"
     inkscape:window-x="0"
     inkscape:window-y="0"
     inkscape:window-maximized="1"
     showguides="true">
    <inkscape:grid
       type="xygrid"
       id="grid1060" />
  </sodipodi:namedview>
  <metadata
     id="metadata61">
    <rdf:RDF>
      <cc:Work
         rdf:about="">
        <dc:format>image/svg+xml</dc:format>
        <dc:type
           rdf:resource="http://purl.org/dc/dcmitype/StillImage" />
        <dc:title></dc:title>
      </cc:Work>
    </rdf:RDF>
  </metadata>
  <g
     inkscape:label="Ebene 1"
     inkscape:groupmode="layer"
     id="layer1"
     transform="translate(-42.291416,-154.46825)">
    <g
       id="g1111">
      <path
         style="fill:none;stroke:#000000;stroke-width:0.63499999;stroke-miterlimit:4;stroke-dasharray:none;stroke-opacity:1"
         d="m 47.741673,154.46825 h 31.432819 c 3.019442,0 5.450256,2.43081 5.450256,5.45025 v 31.43282 c 0,3.01944 -2.430814,5.45026 -5.450256,5.45026 H 47.741673 c -3.019443,0 -5.450257,-2.43082 -5.450257,-5.45026 V 159.9185 c 0,-3.01944 2.430814,-5.45025 5.450257,-5.45025 z"
         id="rect66" />
      <g
         transform="matrix(1.4882812,0,0,1.4882812,45.66452,153.43341)"
         id="g1058"
         style="fill:#000000">
        <path
           style="fill:none"
           inkscape:connector-curvature="0"
           d="M 0,0 H 24 V 24 H 0 Z"
           id="path1044" />
        <path
           inkscape:connector-curvature="0"
           d="m 19.43,12.98 c 0.04,-0.32 0.07,-0.64 0.07,-0.98 0,-0.34 -0.03,-0.66 -0.07,-0.98 l 2.11,-1.65 c 0.19,-0.15 0.24,-0.42 0.12,-0.64 l -2,-3.46 C 19.54,5.05 19.27,4.97 19.05,5.05 l -2.49,1 C 16.04,5.65 15.48,5.32 14.87,5.07 L 14.49,2.42 C 14.46,2.18 14.25,2 14,2 H 10 C 9.75,2 9.54,2.18 9.51,2.42 L 9.13,5.07 C 8.52,5.32 7.96,5.66 7.44,6.05 l -2.49,-1 C 4.72,4.96 4.46,5.05 4.34,5.27 l -2,3.46 C 2.21,8.95 2.27,9.22 2.46,9.37 l 2.11,1.65 C 4.53,11.34 4.5,11.67 4.5,12 c 0,0.33 0.03,0.66 0.07,0.98 l -2.11,1.65 c -0.19,0.15 -0.24,0.42 -0.12,0.64 l 2,3.46 c 0.12,0.22 0.39,0.3 0.61,0.22 l 2.49,-1 c 0.52,0.4 1.08,0.73 1.69,0.98 l 0.38,2.65 C 9.54,21.82 9.75,22 10,22 h 4 c 0.25,0 0.46,-0.18 0.49,-0.42 l 0.38,-2.65 c 0.61,-0.25 1.17,-0.59 1.69,-0.98 l 2.49,1 c 0.23,0.09 0.49,0 0.61,-0.22 l 2,-3.46 c 0.12,-0.22 0.07,-0.49 -0.12,-0.64 z M 12,15.5 c -1.93,0 -3.5,-1.57 -3.5,-3.5 0,-1.93 1.57,-3.5 3.5,-3.5 1.93,0 3.5,1.57 3.5,3.5 0,1.93 -1.57,3.5 -3.5,3.5 z"
           id="path1046" />
      </g>
      <g
         id="text1064"
         style="font-style:normal;font-variant:normal;font-weight:normal;font-stretch:normal;font-size:10.58333302px;line-height:1.25;font-family:'Arial Rounded MT Bold';-inkscape-font-specification:'Arial Rounded MT Bold, Normal';font-variant-ligatures:normal;font-variant-caps:normal;font-variant-numeric:normal;text-align:start;letter-spacing:0px;word-spacing:0px;writing-mode:lr-tb;text-anchor:start;fill:#000000;fill-opacity:1;stroke:none;stroke-width:0.26458332"
         aria-label="Einstellungen">
        <path
           id="path1066"
           style="font-size:5.29166651px;stroke-width:0.26458332"
           d="m 49.204133,191.06938 h -1.728576 v 0.93017 h 1.591634 q 0.1757,0 0.260966,0.0801 0.08785,0.0775 0.08785,0.20671 0,0.12919 -0.08527,0.21187 -0.08527,0.0801 -0.26355,0.0801 h -1.591634 v 1.07745 h 1.788004 q 0.180868,0 0.271301,0.0853 0.09302,0.0827 0.09302,0.22221 0,0.13436 -0.09302,0.21962 -0.09043,0.0827 -0.271301,0.0827 h -2.085144 q -0.250631,0 -0.361735,-0.1111 -0.10852,-0.1111 -0.10852,-0.35915 v -2.84737 q 0,-0.16537 0.04909,-0.26872 0.04909,-0.10594 0.152446,-0.15245 0.105936,-0.0491 0.268717,-0.0491 h 2.025716 q 0.183452,0 0.271302,0.0827 0.09043,0.0801 0.09043,0.21188 0,0.13436 -0.09043,0.21704 -0.08785,0.0801 -0.271302,0.0801 z" />
        <path
           id="path1068"
           style="font-size:5.29166651px;stroke-width:0.26458332"
           d="m 50.89912,191.86261 v 2.03864 q 0,0.21187 -0.100769,0.32039 -0.100769,0.10852 -0.255798,0.10852 -0.155029,0 -0.253215,-0.1111 -0.0956,-0.11111 -0.0956,-0.31781 v -2.01797 q 0,-0.20929 0.0956,-0.31523 0.09819,-0.10593 0.253215,-0.10593 0.155029,0 0.255798,0.10593 0.100769,0.10594 0.100769,0.29456 z m -0.348816,-0.72864 q -0.147277,0 -0.253214,-0.0904 -0.103353,-0.0904 -0.103353,-0.2558 0,-0.14986 0.105937,-0.24546 0.10852,-0.0982 0.25063,-0.0982 0.136943,0 0.24288,0.0879 0.105936,0.0879 0.105936,0.2558 0,0.16278 -0.103353,0.2558 -0.103352,0.0904 -0.245463,0.0904 z" />
        <path
           id="path1070"
           style="font-size:5.29166651px;stroke-width:0.26458332"
           d="m 52.271129,191.85227 v 0.0853 q 0.186035,-0.24546 0.40566,-0.35915 0.222209,-0.11627 0.509013,-0.11627 0.279053,0 0.498678,0.12144 0.219624,0.12144 0.328145,0.34365 0.06976,0.12919 0.09043,0.27905 0.02067,0.14986 0.02067,0.3824 v 1.31259 q 0,0.21187 -0.09819,0.32039 -0.0956,0.10852 -0.250631,0.10852 -0.157613,0 -0.255798,-0.1111 -0.09819,-0.11111 -0.09819,-0.31781 v -1.17564 q 0,-0.34882 -0.09819,-0.53227 -0.0956,-0.18604 -0.38499,-0.18604 -0.188619,0 -0.343648,0.11369 -0.155029,0.11111 -0.227376,0.30748 -0.05168,0.15761 -0.05168,0.58911 v 0.88367 q 0,0.21445 -0.100769,0.32297 -0.09818,0.10594 -0.255798,0.10594 -0.152446,0 -0.250631,-0.1111 -0.09819,-0.11111 -0.09819,-0.31781 v -2.03864 q 0,-0.20154 0.08785,-0.29972 0.08785,-0.10077 0.240295,-0.10077 0.09302,0 0.167949,0.0439 0.07493,0.0439 0.118855,0.13178 0.04651,0.0879 0.04651,0.21445 z" />
        <path
           id="path1072"
           style="font-size:5.29166651px;stroke-width:0.26458332"
           d="m 57.095124,193.40774 q 0,0.29197 -0.14211,0.50126 -0.14211,0.2067 -0.421163,0.31522 -0.276469,0.10594 -0.674377,0.10594 -0.379822,0 -0.651123,-0.11627 -0.271302,-0.11627 -0.400493,-0.28939 -0.129191,-0.1757 -0.129191,-0.3514 0,-0.11627 0.08268,-0.19895 0.08268,-0.0827 0.20929,-0.0827 0.111104,0 0.170532,0.0543 0.05943,0.0543 0.113688,0.15245 0.108521,0.18862 0.258383,0.28164 0.152445,0.093 0.413411,0.093 0.211873,0 0.346232,-0.093 0.136943,-0.0956 0.136943,-0.21705 0,-0.18603 -0.142111,-0.2713 -0.139526,-0.0853 -0.462504,-0.16278 -0.364318,-0.0904 -0.594279,-0.18862 -0.227376,-0.10077 -0.364318,-0.26355 -0.136943,-0.16278 -0.136943,-0.40049 0,-0.21187 0.126607,-0.40049 0.126608,-0.18862 0.372071,-0.29972 0.248046,-0.11369 0.596862,-0.11369 0.273885,0 0.490926,0.0568 0.219625,0.0568 0.364319,0.15245 0.147278,0.0956 0.222209,0.21187 0.07751,0.11627 0.07751,0.22738 0,0.12144 -0.08268,0.19895 -0.0801,0.0775 -0.22996,0.0775 -0.10852,0 -0.186035,-0.062 -0.07493,-0.062 -0.173116,-0.18603 -0.0801,-0.10335 -0.188619,-0.16537 -0.10852,-0.062 -0.294556,-0.062 -0.191202,0 -0.31781,0.0827 -0.126607,0.0801 -0.126607,0.20154 0,0.11111 0.09302,0.18345 0.09302,0.0698 0.25063,0.11628 0.157613,0.0465 0.434082,0.11368 0.328146,0.0801 0.534851,0.19121 0.20929,0.1111 0.315227,0.26355 0.10852,0.14986 0.10852,0.34365 z" />
        <path
           id="path1074"
           style="font-size:5.29166651px;stroke-width:0.26458332"
           d="m 57.735912,191.52413 h 0.07751 v -0.42375 q 0,-0.17053 0.0078,-0.26613 0.01034,-0.0982 0.05168,-0.16795 0.04134,-0.0724 0.118856,-0.11627 0.07751,-0.0465 0.173116,-0.0465 0.134358,0 0.242879,0.10077 0.07235,0.0672 0.09043,0.16536 0.02067,0.0956 0.02067,0.27389 v 0.48059 h 0.258382 q 0.149862,0 0.227377,0.0724 0.0801,0.0698 0.0801,0.18086 0,0.14211 -0.113688,0.19896 -0.111104,0.0568 -0.320394,0.0568 H 58.51881 v 1.29708 q 0,0.16537 0.01034,0.2558 0.01292,0.0879 0.06201,0.14469 0.05168,0.0543 0.165365,0.0543 0.06201,0 0.167948,-0.0207 0.105937,-0.0232 0.165365,-0.0232 0.08527,0 0.152445,0.0698 0.06976,0.0672 0.06976,0.16795 0,0.17053 -0.186035,0.26097 -0.186035,0.0904 -0.534851,0.0904 -0.330729,0 -0.501261,-0.1111 -0.170532,-0.11111 -0.224793,-0.30748 -0.05168,-0.19637 -0.05168,-0.52452 v -1.35392 h -0.09302 q -0.152445,0 -0.232544,-0.0723 -0.0801,-0.0724 -0.0801,-0.18346 0,-0.1111 0.08268,-0.18086 0.08527,-0.0724 0.245463,-0.0724 z" />
        <path
           id="path1076"
           style="font-size:5.29166651px;stroke-width:0.26458332"
           d="m 61.536714,193.06925 h -1.379761 q 0.0026,0.2403 0.0956,0.42375 0.0956,0.18345 0.250631,0.27647 0.157613,0.093 0.346232,0.093 0.126607,0 0.22996,-0.0284 0.105937,-0.031 0.204122,-0.093 0.09819,-0.0646 0.180868,-0.13694 0.08268,-0.0724 0.214457,-0.19637 0.05426,-0.0465 0.155029,-0.0465 0.108521,0 0.1757,0.0594 0.06718,0.0594 0.06718,0.16795 0,0.0956 -0.07493,0.2248 -0.07493,0.1266 -0.227376,0.24546 -0.149862,0.11627 -0.379822,0.19378 -0.227376,0.0775 -0.524515,0.0775 -0.679545,0 -1.056783,-0.38757 -0.377238,-0.38758 -0.377238,-1.05162 0,-0.31264 0.09302,-0.57878 0.09302,-0.26871 0.271301,-0.45992 0.178284,-0.1912 0.43925,-0.29197 0.260966,-0.10335 0.578776,-0.10335 0.413412,0 0.707967,0.1757 0.29714,0.17312 0.444418,0.44958 0.147277,0.27647 0.147277,0.56328 0,0.26613 -0.152445,0.34623 -0.152446,0.0775 -0.428914,0.0775 z m -1.379761,-0.40049 h 1.278991 q -0.02584,-0.36173 -0.19637,-0.54002 -0.167948,-0.18086 -0.444417,-0.18086 -0.26355,0 -0.434082,0.18345 -0.167949,0.18086 -0.204122,0.53743 z" />
        <path
           id="path1078"
           style="font-size:5.29166651px;stroke-width:0.26458332"
           d="M 62.709768,193.90125 V 190.842 q 0,-0.21187 0.09302,-0.32039 0.0956,-0.10852 0.255798,-0.10852 0.160197,0 0.258382,0.10852 0.09819,0.10593 0.09819,0.32039 v 3.05925 q 0,0.21445 -0.100769,0.32297 -0.09819,0.10594 -0.255799,0.10594 -0.155029,0 -0.253214,-0.1111 -0.0956,-0.11111 -0.0956,-0.31781 z" />
        <path
           id="path1080"
           style="font-size:5.29166651px;stroke-width:0.26458332"
           d="M 64.146374,193.90125 V 190.842 q 0,-0.21187 0.09302,-0.32039 0.0956,-0.10852 0.255799,-0.10852 0.160197,0 0.258382,0.10852 0.09819,0.10593 0.09819,0.32039 v 3.05925 q 0,0.21445 -0.100769,0.32297 -0.09819,0.10594 -0.255798,0.10594 -0.15503,0 -0.253215,-0.1111 -0.0956,-0.11111 -0.0956,-0.31781 z" />
        <path
           id="path1082"
           style="font-size:5.29166651px;stroke-width:0.26458332"
           d="m 67.414907,193.93225 v -0.0904 q -0.126608,0.16019 -0.266134,0.26871 -0.139526,0.10853 -0.304891,0.1602 -0.165364,0.0543 -0.377238,0.0543 -0.255798,0 -0.45992,-0.10593 -0.201538,-0.10594 -0.312642,-0.29198 -0.131775,-0.22479 -0.131775,-0.64595 v -1.39785 q 0,-0.21187 0.0956,-0.31523 0.0956,-0.10593 0.253215,-0.10593 0.160197,0 0.258382,0.10593 0.09819,0.10594 0.09819,0.31523 v 1.12913 q 0,0.24546 0.04134,0.41341 0.04134,0.16537 0.147278,0.26097 0.10852,0.093 0.291972,0.093 0.178283,0 0.335897,-0.10594 0.157613,-0.10594 0.22996,-0.27647 0.05943,-0.14986 0.05943,-0.65629 v -0.85783 q 0,-0.20929 0.09819,-0.31523 0.09819,-0.10593 0.255798,-0.10593 0.157613,0 0.253215,0.10593 0.0956,0.10336 0.0956,0.31523 v 2.0438 q 0,0.20154 -0.09302,0.30231 -0.09043,0.10077 -0.235127,0.10077 -0.144694,0 -0.240296,-0.10335 -0.09302,-0.10594 -0.09302,-0.29456 z" />
        <path
           id="path1084"
           style="font-size:5.29166651px;stroke-width:0.26458332"
           d="m 69.417369,191.85227 v 0.0853 q 0.186035,-0.24546 0.40566,-0.35915 0.222208,-0.11627 0.509012,-0.11627 0.279053,0 0.498678,0.12144 0.219625,0.12144 0.328145,0.34365 0.06976,0.12919 0.09043,0.27905 0.02067,0.14986 0.02067,0.3824 v 1.31259 q 0,0.21187 -0.09819,0.32039 -0.0956,0.10852 -0.25063,0.10852 -0.157613,0 -0.255799,-0.1111 -0.09818,-0.11111 -0.09818,-0.31781 v -1.17564 q 0,-0.34882 -0.09819,-0.53227 -0.0956,-0.18604 -0.38499,-0.18604 -0.188618,0 -0.343648,0.11369 -0.155029,0.11111 -0.227376,0.30748 -0.05168,0.15761 -0.05168,0.58911 v 0.88367 q 0,0.21445 -0.10077,0.32297 -0.09819,0.10594 -0.255798,0.10594 -0.152445,0 -0.250631,-0.1111 -0.09819,-0.11111 -0.09819,-0.31781 v -2.03864 q 0,-0.20154 0.08785,-0.29972 0.08785,-0.10077 0.240296,-0.10077 0.09302,0 0.167948,0.0439 0.07493,0.0439 0.118856,0.13178 0.04651,0.0879 0.04651,0.21445 z" />
        <path
           id="path1086"
           style="font-size:5.29166651px;stroke-width:0.26458332"
           d="m 74.564341,191.97888 v 2.04897 q 0,0.3514 -0.07493,0.60462 -0.07493,0.25321 -0.240295,0.41858 -0.165365,0.16536 -0.434082,0.24546 -0.266134,0.0801 -0.664042,0.0801 -0.364319,0 -0.651123,-0.10336 -0.286804,-0.10076 -0.441834,-0.26355 -0.155029,-0.16019 -0.155029,-0.33072 0,-0.1292 0.08785,-0.21188 0.08785,-0.0801 0.211873,-0.0801 0.15503,0 0.271302,0.13695 0.05684,0.0698 0.116271,0.13952 0.06201,0.0724 0.134359,0.12144 0.07493,0.0517 0.178284,0.0749 0.103353,0.0258 0.237711,0.0258 0.273886,0 0.423747,-0.0775 0.152446,-0.0749 0.211874,-0.21188 0.06201,-0.13694 0.07235,-0.29455 0.01033,-0.15503 0.0155,-0.50126 -0.162781,0.22737 -0.377238,0.34623 -0.211874,0.11885 -0.506429,0.11885 -0.353984,0 -0.620118,-0.18086 -0.263549,-0.18087 -0.40566,-0.50643 -0.14211,-0.32556 -0.14211,-0.75189 0,-0.31781 0.08527,-0.57361 0.08785,-0.2558 0.248047,-0.4315 0.160197,-0.1757 0.369487,-0.26355 0.209289,-0.0904 0.45992,-0.0904 0.299723,0 0.519348,0.11627 0.219625,0.11369 0.408244,0.35915 v -0.0956 q 0,-0.18345 0.09043,-0.28422 0.09043,-0.10077 0.232544,-0.10077 0.204121,0 0.271301,0.13436 0.06718,0.13177 0.06718,0.3824 z m -2.043803,0.894 q 0,0.42892 0.186035,0.64854 0.188619,0.21963 0.485759,0.21963 0.1757,0 0.330729,-0.093 0.157613,-0.0956 0.255798,-0.28422 0.09819,-0.1912 0.09819,-0.4625 0,-0.4315 -0.191203,-0.6718 -0.188619,-0.24029 -0.498678,-0.24029 -0.302307,0 -0.485758,0.22996 -0.180868,0.22996 -0.180868,0.6537 z" />
        <path
           id="path1088"
           style="font-size:5.29166651px;stroke-width:0.26458332"
           d="m 77.117157,193.06925 h -1.379761 q 0.0026,0.2403 0.0956,0.42375 0.0956,0.18345 0.25063,0.27647 0.157613,0.093 0.346232,0.093 0.126608,0 0.229961,-0.0284 0.105936,-0.031 0.204121,-0.093 0.09819,-0.0646 0.180868,-0.13694 0.08268,-0.0724 0.214457,-0.19637 0.05426,-0.0465 0.155029,-0.0465 0.108521,0 0.1757,0.0594 0.06718,0.0594 0.06718,0.16795 0,0.0956 -0.07493,0.2248 -0.07493,0.1266 -0.227377,0.24546 -0.149861,0.11627 -0.379821,0.19378 -0.227377,0.0775 -0.524516,0.0775 -0.679545,0 -1.056783,-0.38757 -0.377238,-0.38758 -0.377238,-1.05162 0,-0.31264 0.09302,-0.57878 0.09302,-0.26871 0.271301,-0.45992 0.178284,-0.1912 0.43925,-0.29197 0.260965,-0.10335 0.578776,-0.10335 0.413411,0 0.707967,0.1757 0.297139,0.17312 0.444417,0.44958 0.147278,0.27647 0.147278,0.56328 0,0.26613 -0.152446,0.34623 -0.152445,0.0775 -0.428914,0.0775 z m -1.379761,-0.40049 h 1.278992 q -0.02584,-0.36173 -0.196371,-0.54002 -0.167948,-0.18086 -0.444417,-0.18086 -0.26355,0 -0.434082,0.18345 -0.167948,0.18086 -0.204122,0.53743 z" />
        <path
           id="path1090"
           style="font-size:5.29166651px;stroke-width:0.26458332"
           d="m 78.936167,191.85227 v 0.0853 q 0.186036,-0.24546 0.40566,-0.35915 0.222209,-0.11627 0.509013,-0.11627 0.279053,0 0.498678,0.12144 0.219625,0.12144 0.328145,0.34365 0.06976,0.12919 0.09043,0.27905 0.02067,0.14986 0.02067,0.3824 v 1.31259 q 0,0.21187 -0.09819,0.32039 -0.0956,0.10852 -0.25063,0.10852 -0.157614,0 -0.255799,-0.1111 -0.09819,-0.11111 -0.09819,-0.31781 v -1.17564 q 0,-0.34882 -0.09819,-0.53227 -0.0956,-0.18604 -0.38499,-0.18604 -0.188619,0 -0.343648,0.11369 -0.155029,0.11111 -0.227376,0.30748 -0.05168,0.15761 -0.05168,0.58911 v 0.88367 q 0,0.21445 -0.100769,0.32297 -0.09819,0.10594 -0.255798,0.10594 -0.152446,0 -0.250631,-0.1111 -0.09819,-0.11111 -0.09819,-0.31781 v -2.03864 q 0,-0.20154 0.08785,-0.29972 0.08785,-0.10077 0.240295,-0.10077 0.09302,0 0.167949,0.0439 0.07493,0.0439 0.118856,0.13178 0.04651,0.0879 0.04651,0.21445 z" />
      </g>
    </g>
  </g>
</svg>
