<?xml version="1.0" encoding="UTF-8" standalone="no"?>
<!-- Created with Inkscape (http://www.inkscape.org/) -->

<svg
   xmlns:dc="http://purl.org/dc/elements/1.1/"
   xmlns:cc="http://creativecommons.org/ns#"
   xmlns:rdf="http://www.w3.org/1999/02/22-rdf-syntax-ns#"
   xmlns:svg="http://www.w3.org/2000/svg"
   xmlns="http://www.w3.org/2000/svg"
   xmlns:sodipodi="http://sodipodi.sourceforge.net/DTD/sodipodi-0.dtd"
   xmlns:inkscape="http://www.inkscape.org/namespaces/inkscape"
   width="42.333332mm"
   height="42.333332mm"
   viewBox="0 0 42.333332 42.333332"
   version="1.1"
   id="svg64"
   inkscape:version="0.92.2 5c3e80d, 2017-08-06"
   sodipodi:docname="MeineRezepte_Pikto.svg">
  <defs
     id="defs58" />
  <sodipodi:namedview
     id="base"
     pagecolor="#ffffff"
     bordercolor="#666666"
     borderopacity="1.0"
     inkscape:pageopacity="0.0"
     inkscape:pageshadow="2"
     inkscape:zoom="0.35"
     inkscape:cx="50.998401"
     inkscape:cy="401.96317"
     inkscape:document-units="mm"
     inkscape:current-layer="text107"
     showgrid="true"
     inkscape:window-width="1440"
     inkscape:window-height="826"
     inkscape:window-x="0"
     inkscape:window-y="0"
     inkscape:window-maximized="1"
     showguides="true">
    <inkscape:grid
       type="xygrid"
       id="grid99" />
  </sodipodi:namedview>
  <metadata
     id="metadata61">
    <rdf:RDF>
      <cc:Work
         rdf:about="">
        <dc:format>image/svg+xml</dc:format>
        <dc:type
           rdf:resource="http://purl.org/dc/dcmitype/StillImage" />
        <dc:title></dc:title>
      </cc:Work>
    </rdf:RDF>
  </metadata>
  <g
     inkscape:label="Ebene 1"
     inkscape:groupmode="layer"
     id="layer1"
     transform="translate(-42.291416,-154.46825)">
    <g
       id="text107"
       style="font-style:normal;font-variant:normal;font-weight:normal;font-stretch:normal;font-size:4.58611107px;line-height:1.25;font-family:'Arial Rounded MT Bold';-inkscape-font-specification:'Arial Rounded MT Bold, ';letter-spacing:0px;word-spacing:0px;fill:#000000;fill-opacity:1;stroke:none;stroke-width:0.26458332"
       aria-label="Meine Rezepte">
      <g
         id="g49">
        <path
           style="fill:none;stroke:#000000;stroke-width:0.63499999;stroke-miterlimit:4;stroke-dasharray:none;stroke-opacity:1"
           d="m 47.741673,154.46825 h 31.432819 c 3.019442,0 5.450256,2.43081 5.450256,5.45025 v 31.43282 c 0,3.01944 -2.430814,5.45026 -5.450256,5.45026 H 47.741673 c -3.019443,0 -5.450257,-2.43082 -5.450257,-5.45026 V 159.9185 c 0,-3.01944 2.430814,-5.45025 5.450257,-5.45025 z"
           id="rect66"
           inkscape:connector-curvature="0" />
        <path
           style="fill:#d4aa00;fill-opacity:1;stroke:#000000;stroke-width:0.26458332;stroke-opacity:1"
           inkscape:transform-center-x="0.12976021"
           inkscape:transform-center-y="-1.59436"
           d="m 74.546074,188.08085 -10.703261,-5.312 -10.443739,5.80563 1.744522,-11.82089 -8.74878,-8.13855 11.781434,-1.99372 5.036695,-10.83554 5.536805,10.58872 11.861629,1.44182 -8.3595,8.5379 z"
           id="path101"
           inkscape:connector-curvature="0" />
        <g
           aria-label="Meine Rezepte"
           style="font-style:normal;font-weight:normal;font-size:4.58611107px;line-height:1.25;font-family:sans-serif;letter-spacing:0px;word-spacing:0px;fill:#000000;fill-opacity:1;stroke:none;stroke-width:0.07000434"
           id="text41">
          <path
             d="m 48.78525,193.92543 -0.526238,-2.09152 v 2.26619 q 0,0.1881 -0.08509,0.28215 -0.08286,0.0941 -0.221692,0.0941 -0.134359,0 -0.219453,-0.0918 -0.08509,-0.0941 -0.08509,-0.28439 v -2.5976 q 0,-0.21498 0.111966,-0.28888 0.111966,-0.0761 0.302307,-0.0761 h 0.206017 q 0.185863,0 0.268717,0.0336 0.08509,0.0336 0.125402,0.12092 0.04031,0.0873 0.09181,0.28439 l 0.476973,1.79817 0.476973,-1.79817 q 0.0515,-0.19706 0.09181,-0.28439 0.04031,-0.0873 0.123162,-0.12092 0.08509,-0.0336 0.270957,-0.0336 h 0.206017 q 0.190341,0 0.302307,0.0761 0.111966,0.0739 0.111966,0.28888 v 2.5976 q 0,0.1881 -0.08509,0.28215 -0.08286,0.0941 -0.223931,0.0941 -0.13212,0 -0.217214,-0.0941 -0.08509,-0.0941 -0.08509,-0.28215 v -2.26619 l -0.526238,2.09152 q -0.0515,0.20378 -0.08509,0.30007 -0.03135,0.094 -0.118683,0.17243 -0.08733,0.0784 -0.241846,0.0784 -0.116444,0 -0.197059,-0.0515 -0.08062,-0.0493 -0.125402,-0.12764 -0.04479,-0.0784 -0.07166,-0.17243 -0.02463,-0.0963 -0.0515,-0.1993 z"
             style="font-style:normal;font-variant:normal;font-weight:normal;font-stretch:normal;font-size:4.58611107px;font-family:'Arial Rounded MT Bold';-inkscape-font-specification:'Arial Rounded MT Bold, ';stroke-width:0.07000434"
             id="path51" />
          <path
             d="m 53.165344,193.38352 h -1.195792 q 0.0022,0.20825 0.08285,0.36724 0.08286,0.159 0.217213,0.23961 0.136598,0.0806 0.300068,0.0806 0.109727,0 0.199299,-0.0246 0.09181,-0.0269 0.176906,-0.0806 0.08509,-0.056 0.156751,-0.11869 0.07166,-0.0627 0.185863,-0.17018 0.04703,-0.0403 0.134359,-0.0403 0.09405,0 0.152273,0.0515 0.05822,0.0515 0.05822,0.14556 0,0.0829 -0.06494,0.19482 -0.06494,0.10973 -0.197059,0.21273 -0.12988,0.10077 -0.329179,0.16795 -0.197059,0.0672 -0.45458,0.0672 -0.588939,0 -0.915879,-0.3359 -0.326939,-0.33589 -0.326939,-0.9114 0,-0.27095 0.08062,-0.5016 0.08062,-0.23289 0.235128,-0.3986 0.154512,-0.16571 0.380683,-0.25304 0.22617,-0.0896 0.501605,-0.0896 0.35829,0 0.613572,0.15227 0.257521,0.15003 0.385162,0.38964 0.12764,0.23961 0.12764,0.48817 0,0.23065 -0.132119,0.30007 -0.132119,0.0672 -0.371726,0.0672 z m -1.195792,-0.3471 h 1.108459 q -0.02239,-0.3135 -0.170188,-0.46801 -0.145555,-0.15675 -0.385161,-0.15675 -0.22841,0 -0.376205,0.15899 -0.145555,0.15675 -0.176905,0.46577 z"
             style="font-style:normal;font-variant:normal;font-weight:normal;font-stretch:normal;font-size:4.58611107px;font-family:'Arial Rounded MT Bold';-inkscape-font-specification:'Arial Rounded MT Bold, ';stroke-width:0.07000434"
             id="path53" />
          <path
             d="m 54.793324,192.33776 v 1.76682 q 0,0.18362 -0.08733,0.27767 -0.08733,0.0941 -0.221692,0.0941 -0.134359,0 -0.219452,-0.0963 -0.08286,-0.0963 -0.08286,-0.27543 v -1.74891 q 0,-0.18138 0.08286,-0.27319 0.08509,-0.0918 0.219452,-0.0918 0.134359,0 0.221692,0.0918 0.08733,0.0918 0.08733,0.25528 z m -0.302307,-0.63149 q -0.127641,0 -0.219452,-0.0784 -0.08957,-0.0784 -0.08957,-0.2217 0,-0.12988 0.09181,-0.21273 0.09405,-0.0851 0.217213,-0.0851 0.118684,0 0.210495,0.0761 0.09181,0.0761 0.09181,0.22169 0,0.14108 -0.08957,0.2217 -0.08957,0.0784 -0.212735,0.0784 z"
             style="font-style:normal;font-variant:normal;font-weight:normal;font-stretch:normal;font-size:4.58611107px;font-family:'Arial Rounded MT Bold';-inkscape-font-specification:'Arial Rounded MT Bold, ';stroke-width:0.07000434"
             id="path55" />
          <path
             d="m 55.982399,192.3288 v 0.0739 q 0.16123,-0.21274 0.351572,-0.31127 0.19258,-0.10076 0.441144,-0.10076 0.241846,0 0.432187,0.10524 0.190342,0.10525 0.284393,0.29783 0.06046,0.11197 0.07838,0.24185 0.01791,0.12988 0.01791,0.33142 v 1.13757 q 0,0.18362 -0.08509,0.27767 -0.08285,0.0941 -0.217213,0.0941 -0.136598,0 -0.221692,-0.0963 -0.08509,-0.0963 -0.08509,-0.27543 v -1.01889 q 0,-0.30231 -0.08509,-0.4613 -0.08286,-0.16123 -0.333658,-0.16123 -0.16347,0 -0.297828,0.0985 -0.134359,0.0963 -0.19706,0.26648 -0.04479,0.1366 -0.04479,0.51056 v 0.76585 q 0,0.18586 -0.08733,0.27991 -0.08509,0.0918 -0.221692,0.0918 -0.13212,0 -0.217213,-0.0963 -0.08509,-0.0963 -0.08509,-0.27543 v -1.76682 q 0,-0.17467 0.07614,-0.25976 0.07614,-0.0873 0.208256,-0.0873 0.08062,0 0.145556,0.0381 0.06494,0.0381 0.103008,0.11421 0.04031,0.0761 0.04031,0.18586 z"
             style="font-style:normal;font-variant:normal;font-weight:normal;font-stretch:normal;font-size:4.58611107px;font-family:'Arial Rounded MT Bold';-inkscape-font-specification:'Arial Rounded MT Bold, ';stroke-width:0.07000434"
             id="path57" />
          <path
             d="m 59.901195,193.38352 h -1.195793 q 0.0022,0.20825 0.08286,0.36724 0.08285,0.159 0.217213,0.23961 0.136598,0.0806 0.300068,0.0806 0.109726,0 0.199299,-0.0246 0.09181,-0.0269 0.176905,-0.0806 0.08509,-0.056 0.156752,-0.11869 0.07166,-0.0627 0.185863,-0.17018 0.04703,-0.0403 0.134359,-0.0403 0.09405,0 0.152273,0.0515 0.05822,0.0515 0.05822,0.14556 0,0.0829 -0.06494,0.19482 -0.06494,0.10973 -0.197059,0.21273 -0.129881,0.10077 -0.329179,0.16795 -0.19706,0.0672 -0.454581,0.0672 -0.588939,0 -0.915878,-0.3359 -0.32694,-0.33589 -0.32694,-0.9114 0,-0.27095 0.08061,-0.5016 0.08062,-0.23289 0.235128,-0.3986 0.154513,-0.16571 0.380683,-0.25304 0.226171,-0.0896 0.501606,-0.0896 0.35829,0 0.613572,0.15227 0.25752,0.15003 0.385161,0.38964 0.127641,0.23961 0.127641,0.48817 0,0.23065 -0.132119,0.30007 -0.13212,0.0672 -0.371726,0.0672 z m -1.195793,-0.3471 h 1.10846 q -0.02239,-0.3135 -0.170188,-0.46801 -0.145555,-0.15675 -0.385162,-0.15675 -0.22841,0 -0.376204,0.15899 -0.145555,0.15675 -0.176906,0.46577 z"
             style="font-style:normal;font-variant:normal;font-weight:normal;font-stretch:normal;font-size:4.58611107px;font-family:'Arial Rounded MT Bold';-inkscape-font-specification:'Arial Rounded MT Bold, ';stroke-width:0.07000434"
             id="path59" />
          <path
             d="m 63.000402,193.01627 h -0.232888 v 1.05472 q 0,0.20825 -0.09181,0.30678 -0.09181,0.0985 -0.239606,0.0985 -0.158992,0 -0.246325,-0.10301 -0.08733,-0.10301 -0.08733,-0.3023 v -2.52595 q 0,-0.21497 0.09629,-0.31126 0.09629,-0.0963 0.311265,-0.0963 h 1.081588 q 0.223931,0 0.382922,0.0201 0.158991,0.0179 0.286632,0.0761 0.154512,0.0649 0.273196,0.18586 0.118683,0.12092 0.179145,0.28215 0.0627,0.15899 0.0627,0.33814 0,0.36725 -0.208256,0.5867 -0.206017,0.21945 -0.627008,0.31126 0.176906,0.0941 0.338136,0.27768 0.161231,0.18362 0.286632,0.39188 0.127641,0.20602 0.19706,0.37396 0.07166,0.16571 0.07166,0.22841 0,0.0649 -0.04255,0.12988 -0.04031,0.0627 -0.111966,0.0985 -0.07166,0.0381 -0.165709,0.0381 -0.111966,0 -0.188102,-0.0537 -0.07614,-0.0515 -0.13212,-0.13212 -0.05374,-0.0806 -0.147794,-0.23737 l -0.266478,-0.44338 q -0.143316,-0.24409 -0.257521,-0.37173 -0.111966,-0.12764 -0.22841,-0.17466 -0.116444,-0.047 -0.29335,-0.047 z m 0.380683,-1.37942 h -0.613571 v 0.90245 h 0.595657 q 0.239606,0 0.403076,-0.0403 0.16347,-0.0426 0.248563,-0.14108 0.08733,-0.10077 0.08733,-0.27543 0,-0.1366 -0.06942,-0.23961 -0.06942,-0.10525 -0.192581,-0.15675 -0.116444,-0.0493 -0.459059,-0.0493 z"
             style="font-style:normal;font-variant:normal;font-weight:normal;font-stretch:normal;font-size:4.58611107px;font-family:'Arial Rounded MT Bold';-inkscape-font-specification:'Arial Rounded MT Bold, ';stroke-width:0.07000434"
             id="path61" />
          <path
             d="m 66.955027,193.38352 h -1.195793 q 0.0022,0.20825 0.08285,0.36724 0.08285,0.159 0.217213,0.23961 0.136598,0.0806 0.300068,0.0806 0.109726,0 0.199299,-0.0246 0.09181,-0.0269 0.176905,-0.0806 0.08509,-0.056 0.156752,-0.11869 0.07166,-0.0627 0.185863,-0.17018 0.04703,-0.0403 0.134359,-0.0403 0.09405,0 0.152273,0.0515 0.05822,0.0515 0.05822,0.14556 0,0.0829 -0.06494,0.19482 -0.06494,0.10973 -0.197059,0.21273 -0.129881,0.10077 -0.329179,0.16795 -0.19706,0.0672 -0.454581,0.0672 -0.588939,0 -0.915878,-0.3359 -0.32694,-0.33589 -0.32694,-0.9114 0,-0.27095 0.08061,-0.5016 0.08062,-0.23289 0.235128,-0.3986 0.154513,-0.16571 0.380683,-0.25304 0.226171,-0.0896 0.501606,-0.0896 0.35829,0 0.613572,0.15227 0.25752,0.15003 0.385161,0.38964 0.127641,0.23961 0.127641,0.48817 0,0.23065 -0.132119,0.30007 -0.13212,0.0672 -0.371726,0.0672 z m -1.195793,-0.3471 h 1.10846 q -0.02239,-0.3135 -0.170188,-0.46801 -0.145555,-0.15675 -0.385162,-0.15675 -0.22841,0 -0.376204,0.15899 -0.145555,0.15675 -0.176906,0.46577 z"
             style="font-style:normal;font-variant:normal;font-weight:normal;font-stretch:normal;font-size:4.58611107px;font-family:'Arial Rounded MT Bold';-inkscape-font-specification:'Arial Rounded MT Bold, ';stroke-width:0.07000434"
             id="path63" />
          <path
             d="m 69.570544,192.69157 -1.119656,1.25178 h 1.198032 q 0.145555,0 0.219452,0.0694 0.0739,0.0672 0.0739,0.17467 0,0.10301 -0.0739,0.16795 -0.07166,0.0649 -0.219452,0.0649 h -1.657091 q -0.174667,0 -0.262,-0.0761 -0.08509,-0.0761 -0.08509,-0.20825 0,-0.0784 0.06046,-0.15676 0.06046,-0.0806 0.250803,-0.29335 0.201538,-0.22393 0.365008,-0.40531 0.165709,-0.18139 0.306785,-0.33814 0.141077,-0.15899 0.232889,-0.26871 0.09405,-0.10973 0.150034,-0.18811 h -0.909161 q -0.188102,0 -0.284393,-0.0336 -0.09629,-0.0336 -0.09629,-0.1769 0,-0.10525 0.07166,-0.16795 0.0739,-0.0627 0.208256,-0.0627 h 1.404049 q 0.19482,0 0.297828,0.0582 0.105248,0.056 0.105248,0.20378 0,0.0493 -0.02015,0.10301 -0.02015,0.0515 -0.04479,0.0851 -0.02463,0.0336 -0.06718,0.0829 -0.04255,0.047 -0.105247,0.11421 z"
             style="font-style:normal;font-variant:normal;font-weight:normal;font-stretch:normal;font-size:4.58611107px;font-family:'Arial Rounded MT Bold';-inkscape-font-specification:'Arial Rounded MT Bold, ';stroke-width:0.07000434"
             id="path65" />
          <path
             d="m 71.944214,193.38352 h -1.195793 q 0.0022,0.20825 0.08286,0.36724 0.08285,0.159 0.217213,0.23961 0.136598,0.0806 0.300068,0.0806 0.109726,0 0.199299,-0.0246 0.09181,-0.0269 0.176906,-0.0806 0.08509,-0.056 0.156751,-0.11869 0.07166,-0.0627 0.185863,-0.17018 0.04703,-0.0403 0.134359,-0.0403 0.09405,0 0.152273,0.0515 0.05822,0.0515 0.05822,0.14556 0,0.0829 -0.06494,0.19482 -0.06494,0.10973 -0.197059,0.21273 -0.12988,0.10077 -0.329179,0.16795 -0.19706,0.0672 -0.45458,0.0672 -0.588939,0 -0.915879,-0.3359 -0.32694,-0.33589 -0.32694,-0.9114 0,-0.27095 0.08062,-0.5016 0.08062,-0.23289 0.235127,-0.3986 0.154513,-0.16571 0.380683,-0.25304 0.226171,-0.0896 0.501606,-0.0896 0.35829,0 0.613572,0.15227 0.257521,0.15003 0.385162,0.38964 0.12764,0.23961 0.12764,0.48817 0,0.23065 -0.132119,0.30007 -0.13212,0.0672 -0.371726,0.0672 z m -1.195793,-0.3471 h 1.10846 q -0.02239,-0.3135 -0.170188,-0.46801 -0.145555,-0.15675 -0.385161,-0.15675 -0.22841,0 -0.376205,0.15899 -0.145555,0.15675 -0.176906,0.46577 z"
             style="font-style:normal;font-variant:normal;font-weight:normal;font-stretch:normal;font-size:4.58611107px;font-family:'Arial Rounded MT Bold';-inkscape-font-specification:'Arial Rounded MT Bold, ';stroke-width:0.07000434"
             id="path67" />
          <path
             d="m 73.462468,192.33328 v 0.0739 q 0.172427,-0.21274 0.35829,-0.31127 0.185863,-0.10077 0.420991,-0.10077 0.282153,0 0.51952,0.14556 0.237367,0.14555 0.373965,0.42547 0.138838,0.27991 0.138838,0.66283 0,0.28216 -0.08062,0.51952 -0.07838,0.23513 -0.217213,0.39636 -0.138837,0.15899 -0.329179,0.24633 -0.188102,0.0851 -0.405315,0.0851 -0.262,0 -0.441145,-0.10525 -0.176905,-0.10524 -0.338136,-0.30902 v 0.91812 q 0,0.40307 -0.29335,0.40307 -0.172427,0 -0.22841,-0.10524 -0.05598,-0.10301 -0.05598,-0.30231 v -2.63791 q 0,-0.17467 0.07614,-0.25976 0.07614,-0.0873 0.208256,-0.0873 0.12988,0 0.210496,0.0896 0.08285,0.0873 0.08285,0.25304 z m 1.198032,0.88901 q 0,-0.24185 -0.0739,-0.41428 -0.0739,-0.17466 -0.206017,-0.26647 -0.12988,-0.0941 -0.288871,-0.0941 -0.253043,0 -0.427709,0.1993 -0.172427,0.1993 -0.172427,0.5867 0,0.36501 0.172427,0.56879 0.172427,0.20154 0.427709,0.20154 0.152273,0 0.282153,-0.0873 0.12988,-0.0896 0.208256,-0.26647 0.07838,-0.17691 0.07838,-0.42771 z"
             style="font-style:normal;font-variant:normal;font-weight:normal;font-stretch:normal;font-size:4.58611107px;font-family:'Arial Rounded MT Bold';-inkscape-font-specification:'Arial Rounded MT Bold, ';stroke-width:0.07000434"
             id="path69" />
          <path
             d="m 75.802549,192.04441 h 0.06718 v -0.36725 q 0,-0.14779 0.0067,-0.23065 0.009,-0.0851 0.04479,-0.14555 0.03583,-0.0627 0.103008,-0.10077 0.06718,-0.0403 0.150034,-0.0403 0.116444,0 0.210495,0.0873 0.0627,0.0582 0.07838,0.14332 0.01792,0.0828 0.01792,0.23737 v 0.41651 h 0.223931 q 0.12988,0 0.197059,0.0627 0.06942,0.0605 0.06942,0.15675 0,0.12316 -0.09853,0.17243 -0.09629,0.0493 -0.277674,0.0493 h -0.114205 v 1.12414 q 0,0.14331 0.009,0.22169 0.0112,0.0761 0.05374,0.1254 0.04479,0.047 0.143315,0.047 0.05374,0 0.145556,-0.0179 0.09181,-0.0202 0.143316,-0.0202 0.0739,0 0.132119,0.0605 0.06046,0.0582 0.06046,0.14555 0,0.1478 -0.161231,0.22618 -0.16123,0.0784 -0.463537,0.0784 -0.286632,0 -0.434427,-0.0963 -0.147795,-0.0963 -0.19482,-0.26648 -0.04479,-0.17018 -0.04479,-0.45458 v -1.1734 h -0.08062 q -0.132119,0 -0.201538,-0.0627 -0.06942,-0.0627 -0.06942,-0.15899 0,-0.0963 0.07166,-0.15675 0.0739,-0.0627 0.212734,-0.0627 z"
             style="font-style:normal;font-variant:normal;font-weight:normal;font-stretch:normal;font-size:4.58611107px;font-family:'Arial Rounded MT Bold';-inkscape-font-specification:'Arial Rounded MT Bold, ';stroke-width:0.07000434"
             id="path71" />
          <path
             d="m 79.096577,193.38352 h -1.195793 q 0.0022,0.20825 0.08285,0.36724 0.08285,0.159 0.217213,0.23961 0.136598,0.0806 0.300068,0.0806 0.109726,0 0.199299,-0.0246 0.09181,-0.0269 0.176905,-0.0806 0.08509,-0.056 0.156752,-0.11869 0.07166,-0.0627 0.185863,-0.17018 0.04703,-0.0403 0.134359,-0.0403 0.09405,0 0.152273,0.0515 0.05822,0.0515 0.05822,0.14556 0,0.0829 -0.06494,0.19482 -0.06494,0.10973 -0.197059,0.21273 -0.12988,0.10077 -0.329179,0.16795 -0.19706,0.0672 -0.454581,0.0672 -0.588939,0 -0.915878,-0.3359 -0.32694,-0.33589 -0.32694,-0.9114 0,-0.27095 0.08061,-0.5016 0.08062,-0.23289 0.235128,-0.3986 0.154513,-0.16571 0.380683,-0.25304 0.226171,-0.0896 0.501606,-0.0896 0.35829,0 0.613572,0.15227 0.257521,0.15003 0.385161,0.38964 0.127641,0.23961 0.127641,0.48817 0,0.23065 -0.132119,0.30007 -0.13212,0.0672 -0.371726,0.0672 z m -1.195793,-0.3471 h 1.10846 q -0.02239,-0.3135 -0.170188,-0.46801 -0.145555,-0.15675 -0.385162,-0.15675 -0.228409,0 -0.376204,0.15899 -0.145555,0.15675 -0.176906,0.46577 z"
             style="font-style:normal;font-variant:normal;font-weight:normal;font-stretch:normal;font-size:4.58611107px;font-family:'Arial Rounded MT Bold';-inkscape-font-specification:'Arial Rounded MT Bold, ';stroke-width:0.07000434"
             id="path73" />
        </g>
      </g>
    </g>
  </g>
</svg>
