<?xml version="1.0" encoding="UTF-8" standalone="no"?>
<!-- Created with Inkscape (http://www.inkscape.org/) -->

<svg
   xmlns:dc="http://purl.org/dc/elements/1.1/"
   xmlns:cc="http://creativecommons.org/ns#"
   xmlns:rdf="http://www.w3.org/1999/02/22-rdf-syntax-ns#"
   xmlns:svg="http://www.w3.org/2000/svg"
   xmlns="http://www.w3.org/2000/svg"
   xmlns:xlink="http://www.w3.org/1999/xlink"
   xmlns:sodipodi="http://sodipodi.sourceforge.net/DTD/sodipodi-0.dtd"
   xmlns:inkscape="http://www.inkscape.org/namespaces/inkscape"
   width="42.333332mm"
   height="42.333332mm"
   viewBox="0 0 42.333332 42.333332"
   version="1.1"
   id="svg64"
   inkscape:version="0.92.2 5c3e80d, 2017-08-06"
   sodipodi:docname="Suche_Pikto.svg">
  <defs
     id="defs58">
    <linearGradient
       inkscape:collect="always"
       id="linearGradient1717">
      <stop
         style="stop-color:#87cdde;stop-opacity:1;"
         offset="0"
         id="stop1713" />
      <stop
         style="stop-color:#87cdde;stop-opacity:0;"
         offset="1"
         id="stop1715" />
    </linearGradient>
    <linearGradient
       inkscape:collect="always"
       xlink:href="#linearGradient1717"
       id="linearGradient1719"
       x1="53.498202"
       y1="169.30382"
       x2="66.992368"
       y2="169.30382"
       gradientUnits="userSpaceOnUse" />
  </defs>
  <sodipodi:namedview
     id="base"
     pagecolor="#ffffff"
     bordercolor="#666666"
     borderopacity="1.0"
     inkscape:pageopacity="0.0"
     inkscape:pageshadow="2"
     inkscape:zoom="0.70000001"
     inkscape:cx="19.334434"
     inkscape:cy="70.090357"
     inkscape:document-units="mm"
     inkscape:current-layer="layer1"
     showgrid="true"
     inkscape:window-width="1440"
     inkscape:window-height="826"
     inkscape:window-x="0"
     inkscape:window-y="0"
     inkscape:window-maximized="1"
     showguides="true"
     inkscape:guide-bbox="true">
    <inkscape:grid
       type="xygrid"
       id="grid1063" />
    <sodipodi:guide
       position="37.041666,127"
       orientation="0,1"
       id="guide1794"
       inkscape:locked="false" />
  </sodipodi:namedview>
  <metadata
     id="metadata61">
    <rdf:RDF>
      <cc:Work
         rdf:about="">
        <dc:format>image/svg+xml</dc:format>
        <dc:type
           rdf:resource="http://purl.org/dc/dcmitype/StillImage" />
        <dc:title></dc:title>
      </cc:Work>
    </rdf:RDF>
  </metadata>
  <g
     inkscape:label="Ebene 1"
     inkscape:groupmode="layer"
     id="layer1"
     transform="translate(-42.291416,-154.46825)">
    <g
       id="g1804">
      <path
         style="fill:none;stroke:#000000;stroke-width:0.63499999;stroke-miterlimit:4;stroke-dasharray:none;stroke-opacity:1"
         d="m 47.741673,154.46825 h 31.432819 c 3.019442,0 5.450256,2.43081 5.450256,5.45025 v 31.43282 c 0,3.01944 -2.430814,5.45026 -5.450256,5.45026 H 47.741673 c -3.019443,0 -5.450257,-2.43082 -5.450257,-5.45026 V 159.9185 c 0,-3.01944 2.430814,-5.45025 5.450257,-5.45025 z"
         id="rect66" />
      <g
         transform="matrix(1.3269307,0,0,1.3269307,-20.468772,-56.097525)"
         id="g1729">
        <g
           style="fill:#000000"
           id="g1129"
           transform="matrix(1.4153023,0,0,1.4153023,46.812564,155.82068)">
          <path
             id="path1115"
             d="M 15.5,14 H 14.71 L 14.43,13.73 C 15.41,12.59 16,11.11 16,9.5 16,5.91 13.09,3 9.5,3 5.91,3 3,5.91 3,9.5 3,13.09 5.91,16 9.5,16 c 1.61,0 3.09,-0.59 4.23,-1.57 L 14,14.71 v 0.79 l 5,4.99 1.49,-1.49 z m -6,0 C 7.01,14 5,11.99 5,9.5 5,7.01 7.01,5 9.5,5 11.99,5 14,7.01 14,9.5 14,11.99 11.99,14 9.5,14 Z"
             inkscape:connector-curvature="0" />
          <path
             id="path1117"
             d="M 0,0 H 24 V 24 H 0 Z"
             inkscape:connector-curvature="0"
             style="fill:none" />
        </g>
        <path
           style="fill:url(#linearGradient1719);fill-opacity:1;stroke:#000000;stroke-width:0.26499999;stroke-miterlimit:4;stroke-dasharray:none;stroke-opacity:1"
           d="m 66.859868,169.30382 a 6.614583,6.614583 0 0 1 -6.614583,6.61458 6.614583,6.614583 0 0 1 -6.614583,-6.61458 6.614583,6.614583 0 0 1 6.614583,-6.61459 6.614583,6.614583 0 0 1 6.614583,6.61459 z"
           id="path1131" />
      </g>
      <g
         aria-label="Suche"
         style="font-style:normal;font-variant:normal;font-weight:normal;font-stretch:normal;font-size:4.58611107px;line-height:1.25;font-family:'Arial Rounded MT Bold';-inkscape-font-specification:'Arial Rounded MT Bold, ';letter-spacing:0px;word-spacing:0px;fill:#000000;fill-opacity:1;stroke:none;stroke-width:0.26458332"
         id="text1723">
        <path
           d="m 58.656949,194.20989 q 0,0.29783 -0.154512,0.5352 -0.152274,0.23737 -0.447863,0.37172 -0.295589,0.13436 -0.700904,0.13436 -0.485931,0 -0.801674,-0.18362 -0.223931,-0.13212 -0.365008,-0.35157 -0.138837,-0.22169 -0.138837,-0.42995 0,-0.12092 0.08285,-0.20602 0.08509,-0.0873 0.214974,-0.0873 0.105248,0 0.176906,0.0672 0.0739,0.0672 0.125401,0.1993 0.0627,0.15675 0.134359,0.262 0.0739,0.10525 0.206017,0.17466 0.132119,0.0672 0.347093,0.0672 0.295589,0 0.479213,-0.13659 0.185863,-0.13884 0.185863,-0.34486 0,-0.16347 -0.100769,-0.26424 -0.09853,-0.10301 -0.257521,-0.15675 -0.156752,-0.0537 -0.420991,-0.1142 -0.353811,-0.0829 -0.593417,-0.19259 -0.237368,-0.11196 -0.378444,-0.3023 -0.138838,-0.19258 -0.138838,-0.47698 0,-0.27095 0.147795,-0.48145 0.147795,-0.21049 0.427709,-0.32246 0.279914,-0.1142 0.658357,-0.1142 0.302308,0 0.52176,0.0761 0.221692,0.0739 0.367247,0.1993 0.145556,0.12316 0.212735,0.25976 0.06718,0.1366 0.06718,0.26648 0,0.11868 -0.08509,0.21497 -0.08285,0.0941 -0.208256,0.0941 -0.114205,0 -0.174666,-0.056 -0.05822,-0.0582 -0.127641,-0.1881 -0.08957,-0.18586 -0.214974,-0.28887 -0.125401,-0.10525 -0.403076,-0.10525 -0.257521,0 -0.416512,0.11421 -0.156752,0.11196 -0.156752,0.27095 0,0.0985 0.05374,0.17019 0.05374,0.0717 0.147794,0.12316 0.09405,0.0515 0.190342,0.0806 0.09629,0.0291 0.317982,0.0851 0.277675,0.0649 0.501606,0.14332 0.226171,0.0784 0.382922,0.19034 0.158992,0.11196 0.246325,0.28439 0.08957,0.17019 0.08957,0.41875 z"
           style="font-style:normal;font-variant:normal;font-weight:normal;font-stretch:normal;font-size:4.58611107px;font-family:'Arial Rounded MT Bold';-inkscape-font-specification:'Arial Rounded MT Bold, ';stroke-width:0.26458332"
           id="path1808" />
        <path
           d="m 60.77086,194.90632 v -0.0784 q -0.109727,0.13884 -0.230649,0.23289 -0.120923,0.094 -0.264239,0.13884 -0.143316,0.047 -0.32694,0.047 -0.221692,0 -0.398597,-0.0918 -0.174667,-0.0918 -0.270957,-0.25304 -0.114205,-0.19482 -0.114205,-0.55983 v -1.21147 q 0,-0.18362 0.08286,-0.27319 0.08285,-0.0918 0.219452,-0.0918 0.138837,0 0.223931,0.0918 0.08509,0.0918 0.08509,0.27319 v 0.97858 q 0,0.21274 0.03583,0.35829 0.03583,0.14332 0.127641,0.22617 0.09405,0.0806 0.253042,0.0806 0.154513,0 0.291111,-0.0918 0.136598,-0.0918 0.199299,-0.23961 0.0515,-0.12988 0.0515,-0.56878 v -0.74346 q 0,-0.18138 0.08509,-0.27319 0.08509,-0.0918 0.221692,-0.0918 0.136598,0 0.219452,0.0918 0.08286,0.0896 0.08286,0.27319 v 1.7713 q 0,0.17467 -0.08062,0.262 -0.07838,0.0873 -0.203777,0.0873 -0.125401,0 -0.208256,-0.0896 -0.08062,-0.0918 -0.08062,-0.25528 z"
           style="font-style:normal;font-variant:normal;font-weight:normal;font-stretch:normal;font-size:4.58611107px;font-family:'Arial Rounded MT Bold';-inkscape-font-specification:'Arial Rounded MT Bold, ';stroke-width:0.26458332"
           id="path1810" />
        <path
           d="m 64.143263,194.49429 q 0,0.1142 -0.06942,0.24408 -0.06718,0.12988 -0.208256,0.24856 -0.138838,0.11645 -0.351572,0.18811 -0.212735,0.0717 -0.479213,0.0717 -0.566546,0 -0.884528,-0.32917 -0.317983,-0.33142 -0.317983,-0.88677 0,-0.37621 0.145556,-0.66508 0.145555,-0.28887 0.42099,-0.44562 0.275436,-0.15899 0.658358,-0.15899 0.237367,0 0.434427,0.0694 0.199298,0.0694 0.335896,0.17914 0.138838,0.10973 0.210496,0.23513 0.0739,0.12316 0.0739,0.23065 0,0.10973 -0.08285,0.18586 -0.08062,0.0761 -0.197059,0.0761 -0.07614,0 -0.127641,-0.0381 -0.04926,-0.0403 -0.111965,-0.12764 -0.111966,-0.17019 -0.235128,-0.25528 -0.120923,-0.0851 -0.309025,-0.0851 -0.270957,0 -0.436666,0.21274 -0.165709,0.21049 -0.165709,0.57774 0,0.17243 0.04255,0.31798 0.04255,0.14332 0.123162,0.24633 0.08062,0.10077 0.19482,0.15451 0.114205,0.0515 0.250803,0.0515 0.183624,0 0.313504,-0.0851 0.132119,-0.0851 0.232888,-0.25976 0.05598,-0.10301 0.120923,-0.16123 0.06494,-0.0582 0.158991,-0.0582 0.111966,0 0.185863,0.0851 0.0739,0.0851 0.0739,0.18139 z"
           style="font-style:normal;font-variant:normal;font-weight:normal;font-stretch:normal;font-size:4.58611107px;font-family:'Arial Rounded MT Bold';-inkscape-font-specification:'Arial Rounded MT Bold, ';stroke-width:0.26458332"
           id="path1812" />
        <path
           d="m 65.159911,192.2281 v 0.90692 q 0.116445,-0.13436 0.226171,-0.21273 0.111966,-0.0784 0.246324,-0.11645 0.134359,-0.0403 0.288871,-0.0403 0.232889,0 0.412034,0.0985 0.181384,0.0985 0.284393,0.28663 0.06494,0.10972 0.08733,0.24632 0.02239,0.13436 0.02239,0.31127 v 1.17116 q 0,0.18362 -0.08509,0.27767 -0.08285,0.0941 -0.221692,0.0941 -0.302307,0 -0.302307,-0.37172 v -1.03233 q 0,-0.29335 -0.08733,-0.4501 -0.08733,-0.15899 -0.331418,-0.15899 -0.16347,0 -0.29559,0.094 -0.12988,0.0918 -0.19482,0.25305 -0.04927,0.13659 -0.04927,0.48593 v 0.80839 q 0,0.18138 -0.08285,0.27767 -0.08061,0.0941 -0.226171,0.0941 -0.302307,0 -0.302307,-0.37172 v -2.65135 q 0,-0.18586 0.07838,-0.27767 0.08062,-0.0941 0.223931,-0.0941 0.145556,0 0.226171,0.0941 0.08285,0.094 0.08285,0.27767 z"
           style="font-style:normal;font-variant:normal;font-weight:normal;font-stretch:normal;font-size:4.58611107px;font-family:'Arial Rounded MT Bold';-inkscape-font-specification:'Arial Rounded MT Bold, ';stroke-width:0.26458332"
           id="path1814" />
        <path
           d="m 69.040639,194.15839 h -1.195792 q 0.0022,0.20825 0.08285,0.36725 0.08285,0.15899 0.217213,0.2396 0.136598,0.0806 0.300068,0.0806 0.109726,0 0.199299,-0.0246 0.09181,-0.0269 0.176906,-0.0806 0.08509,-0.056 0.156751,-0.11868 0.07166,-0.0627 0.185863,-0.17019 0.04703,-0.0403 0.134359,-0.0403 0.09405,0 0.152273,0.0515 0.05822,0.0515 0.05822,0.14555 0,0.0829 -0.06494,0.19482 -0.06494,0.10973 -0.197059,0.21274 -0.12988,0.10076 -0.329179,0.16794 -0.197059,0.0672 -0.45458,0.0672 -0.588939,0 -0.915879,-0.33589 -0.32694,-0.3359 -0.32694,-0.9114 0,-0.27096 0.08062,-0.50161 0.08062,-0.23289 0.235127,-0.3986 0.154513,-0.16571 0.380684,-0.25304 0.22617,-0.0896 0.501605,-0.0896 0.35829,0 0.613572,0.15227 0.257521,0.15004 0.385162,0.38964 0.12764,0.23961 0.12764,0.48817 0,0.23065 -0.132119,0.30007 -0.132119,0.0672 -0.371726,0.0672 z m -1.195792,-0.34709 h 1.108459 q -0.02239,-0.31351 -0.170188,-0.46802 -0.145555,-0.15675 -0.385161,-0.15675 -0.22841,0 -0.376205,0.15899 -0.145555,0.15675 -0.176905,0.46578 z"
           style="font-style:normal;font-variant:normal;font-weight:normal;font-stretch:normal;font-size:4.58611107px;font-family:'Arial Rounded MT Bold';-inkscape-font-specification:'Arial Rounded MT Bold, ';stroke-width:0.26458332"
           id="path1816" />
      </g>
    </g>
  </g>
</svg>
