<?xml version="1.0" encoding="UTF-8" standalone="no"?>
<!-- Created with Inkscape (http://www.inkscape.org/) -->

<svg
   xmlns:dc="http://purl.org/dc/elements/1.1/"
   xmlns:cc="http://creativecommons.org/ns#"
   xmlns:rdf="http://www.w3.org/1999/02/22-rdf-syntax-ns#"
   xmlns:svg="http://www.w3.org/2000/svg"
   xmlns="http://www.w3.org/2000/svg"
   xmlns:sodipodi="http://sodipodi.sourceforge.net/DTD/sodipodi-0.dtd"
   xmlns:inkscape="http://www.inkscape.org/namespaces/inkscape"
   width="42.333332mm"
   height="42.333332mm"
   viewBox="0 0 42.333332 42.333332"
   version="1.1"
   id="svg64"
   inkscape:version="0.92.2 5c3e80d, 2017-08-06"
   sodipodi:docname="Wecker_Pikto.svg">
  <defs
     id="defs58" />
  <sodipodi:namedview
     id="base"
     pagecolor="#ffffff"
     bordercolor="#666666"
     borderopacity="1.0"
     inkscape:pageopacity="0.0"
     inkscape:pageshadow="2"
     inkscape:zoom="1.979899"
     inkscape:cx="151.01501"
     inkscape:cy="159.1433"
     inkscape:document-units="mm"
     inkscape:current-layer="layer1"
     showgrid="true"
     inkscape:window-width="1440"
     inkscape:window-height="826"
     inkscape:window-x="0"
     inkscape:window-y="0"
     inkscape:window-maximized="1">
    <inkscape:grid
       type="xygrid"
       id="grid1369" />
  </sodipodi:namedview>
  <metadata
     id="metadata61">
    <rdf:RDF>
      <cc:Work
         rdf:about="">
        <dc:format>image/svg+xml</dc:format>
        <dc:type
           rdf:resource="http://purl.org/dc/dcmitype/StillImage" />
        <dc:title></dc:title>
      </cc:Work>
    </rdf:RDF>
  </metadata>
  <g
     inkscape:label="Ebene 1"
     inkscape:groupmode="layer"
     id="layer1"
     transform="translate(-42.291416,-154.46825)">
    <g
       id="g1571">
      <path
         style="fill:none;stroke:#000000;stroke-width:0.63499999;stroke-miterlimit:4;stroke-dasharray:none;stroke-opacity:1"
         d="m 47.741673,154.46825 h 31.432819 c 3.019442,0 5.450256,2.43081 5.450256,5.45025 v 31.43282 c 0,3.01944 -2.430814,5.45026 -5.450256,5.45026 H 47.741673 c -3.019443,0 -5.450257,-2.43082 -5.450257,-5.45026 V 159.9185 c 0,-3.01944 2.430814,-5.45025 5.450257,-5.45025 z"
         id="rect66" />
      <g
         aria-label="Wecker"
         style="font-style:normal;font-weight:normal;font-size:4.58611107px;line-height:1.25;font-family:sans-serif;letter-spacing:0px;word-spacing:0px;fill:#000000;fill-opacity:1;stroke:none;stroke-width:0.26458332"
         id="text1373">
        <path
           d="m 59.366374,194.60078 -0.530717,-1.96836 -0.537435,1.96836 q -0.0627,0.22393 -0.100769,0.32246 -0.03583,0.0963 -0.127641,0.17466 -0.09181,0.0761 -0.244085,0.0761 -0.123162,0 -0.203778,-0.047 -0.07838,-0.0448 -0.12764,-0.12764 -0.04926,-0.0851 -0.08062,-0.1993 -0.03135,-0.11644 -0.05598,-0.21497 l -0.546393,-2.2102 q -0.04926,-0.19258 -0.04926,-0.29335 0,-0.12764 0.08957,-0.21497 0.08957,-0.0873 0.221692,-0.0873 0.181384,0 0.244085,0.11645 0.0627,0.11644 0.109726,0.33813 l 0.429948,1.91685 0.481452,-1.79368 q 0.05374,-0.20602 0.09629,-0.31351 0.04255,-0.10749 0.138837,-0.18586 0.09629,-0.0784 0.262,-0.0784 0.167948,0 0.25976,0.0829 0.09405,0.0806 0.12988,0.1769 0.03583,0.0963 0.09629,0.31799 l 0.485931,1.79368 0.429948,-1.91685 q 0.03135,-0.15003 0.05822,-0.23512 0.02911,-0.0851 0.09629,-0.15228 0.06942,-0.0672 0.199299,-0.0672 0.12988,0 0.219453,0.0873 0.09181,0.0851 0.09181,0.21497 0,0.0918 -0.04926,0.29335 l -0.546392,2.2102 q -0.05598,0.22393 -0.09405,0.32918 -0.03583,0.10301 -0.125401,0.18138 -0.08733,0.0784 -0.248564,0.0784 -0.152273,0 -0.244085,-0.0761 -0.09181,-0.0761 -0.12764,-0.17018 -0.03583,-0.0963 -0.100769,-0.32694 z"
           style="font-style:normal;font-variant:normal;font-weight:normal;font-stretch:normal;font-size:4.58611107px;font-family:'Arial Rounded MT Bold';-inkscape-font-specification:'Arial Rounded MT Bold, ';stroke-width:0.26458332"
           id="path1574" />
        <path
           d="m 62.89329,194.08126 h -1.195793 q 0.0022,0.20825 0.08286,0.36724 0.08285,0.15899 0.217213,0.23961 0.136598,0.0806 0.300068,0.0806 0.109726,0 0.199299,-0.0246 0.09181,-0.0269 0.176905,-0.0806 0.08509,-0.056 0.156752,-0.11869 0.07166,-0.0627 0.185863,-0.17018 0.04703,-0.0403 0.134359,-0.0403 0.09405,0 0.152273,0.0515 0.05822,0.0515 0.05822,0.14556 0,0.0829 -0.06494,0.19482 -0.06494,0.10972 -0.197059,0.21273 -0.129881,0.10077 -0.329179,0.16795 -0.19706,0.0672 -0.454581,0.0672 -0.588939,0 -0.915878,-0.3359 -0.32694,-0.33589 -0.32694,-0.9114 0,-0.27095 0.08061,-0.5016 0.08062,-0.23289 0.235128,-0.3986 0.154513,-0.16571 0.380683,-0.25304 0.226171,-0.0896 0.501606,-0.0896 0.35829,0 0.613572,0.15227 0.25752,0.15003 0.385161,0.38964 0.127641,0.2396 0.127641,0.48817 0,0.23065 -0.132119,0.30007 -0.13212,0.0672 -0.371726,0.0672 z m -1.195793,-0.3471 h 1.10846 q -0.02239,-0.3135 -0.170188,-0.46801 -0.145555,-0.15676 -0.385162,-0.15676 -0.22841,0 -0.376204,0.159 -0.145555,0.15675 -0.176906,0.46577 z"
           style="font-style:normal;font-variant:normal;font-weight:normal;font-stretch:normal;font-size:4.58611107px;font-family:'Arial Rounded MT Bold';-inkscape-font-specification:'Arial Rounded MT Bold, ';stroke-width:0.26458332"
           id="path1576" />
        <path
           d="m 66.106703,194.41715 q 0,0.11421 -0.06942,0.24409 -0.06718,0.12988 -0.208256,0.24856 -0.138837,0.11645 -0.351572,0.1881 -0.212734,0.0717 -0.479213,0.0717 -0.566546,0 -0.884528,-0.32918 -0.317982,-0.33142 -0.317982,-0.88677 0,-0.3762 0.145555,-0.66507 0.145555,-0.28887 0.420991,-0.44562 0.275435,-0.15899 0.658357,-0.15899 0.237368,0 0.434427,0.0694 0.199299,0.0694 0.335897,0.17915 0.138837,0.10972 0.210495,0.23513 0.0739,0.12316 0.0739,0.23065 0,0.10972 -0.08285,0.18586 -0.08061,0.0761 -0.19706,0.0761 -0.07614,0 -0.12764,-0.0381 -0.04927,-0.0403 -0.111966,-0.12764 -0.111966,-0.17019 -0.235128,-0.25529 -0.120923,-0.0851 -0.309025,-0.0851 -0.270957,0 -0.436666,0.21274 -0.165709,0.21049 -0.165709,0.57774 0,0.17242 0.04255,0.31798 0.04255,0.14332 0.123162,0.24632 0.08062,0.10077 0.194821,0.15452 0.114204,0.0515 0.250802,0.0515 0.183624,0 0.313504,-0.0851 0.13212,-0.0851 0.232889,-0.25976 0.05598,-0.10301 0.120922,-0.16123 0.06494,-0.0582 0.158992,-0.0582 0.111965,0 0.185863,0.0851 0.0739,0.0851 0.0739,0.18138 z"
           style="font-style:normal;font-variant:normal;font-weight:normal;font-stretch:normal;font-size:4.58611107px;font-family:'Arial Rounded MT Bold';-inkscape-font-specification:'Arial Rounded MT Bold, ';stroke-width:0.26458332"
           id="path1578" />
        <path
           d="m 67.994443,194.89413 -0.539674,-0.88677 -0.331418,0.3135 v 0.48593 q 0,0.17691 -0.09405,0.2732 -0.09181,0.094 -0.212734,0.094 -0.141077,0 -0.221692,-0.094 -0.08062,-0.0941 -0.08062,-0.27768 v -2.60655 q 0,-0.20378 0.07838,-0.30903 0.07837,-0.10749 0.223931,-0.10749 0.141076,0 0.223931,0.0963 0.08285,0.0963 0.08285,0.2844 v 1.48242 l 0.687468,-0.72106 q 0.127641,-0.13436 0.19482,-0.18362 0.06718,-0.0493 0.16347,-0.0493 0.114205,0 0.190342,0.0739 0.07614,0.0717 0.07614,0.18139 0,0.13435 -0.248563,0.35829 l -0.324701,0.29782 0.627008,0.9853 q 0.06942,0.10973 0.09853,0.16795 0.03135,0.056 0.03135,0.10749 0,0.14555 -0.08062,0.23065 -0.07838,0.0828 -0.208256,0.0828 -0.111966,0 -0.172427,-0.0605 -0.06046,-0.0605 -0.16347,-0.21945 z"
           style="font-style:normal;font-variant:normal;font-weight:normal;font-stretch:normal;font-size:4.58611107px;font-family:'Arial Rounded MT Bold';-inkscape-font-specification:'Arial Rounded MT Bold, ';stroke-width:0.26458332"
           id="path1580" />
        <path
           d="m 70.64131,194.08126 h -1.195793 q 0.0022,0.20825 0.08286,0.36724 0.08285,0.15899 0.217213,0.23961 0.136598,0.0806 0.300068,0.0806 0.109726,0 0.199299,-0.0246 0.09181,-0.0269 0.176905,-0.0806 0.08509,-0.056 0.156752,-0.11869 0.07166,-0.0627 0.185863,-0.17018 0.04703,-0.0403 0.134359,-0.0403 0.09405,0 0.152273,0.0515 0.05822,0.0515 0.05822,0.14556 0,0.0829 -0.06494,0.19482 -0.06494,0.10972 -0.197059,0.21273 -0.12988,0.10077 -0.329179,0.16795 -0.19706,0.0672 -0.454581,0.0672 -0.588939,0 -0.915878,-0.3359 -0.32694,-0.33589 -0.32694,-0.9114 0,-0.27095 0.08062,-0.5016 0.08061,-0.23289 0.235127,-0.3986 0.154513,-0.16571 0.380683,-0.25304 0.226171,-0.0896 0.501606,-0.0896 0.35829,0 0.613572,0.15227 0.257521,0.15003 0.385161,0.38964 0.127641,0.2396 0.127641,0.48817 0,0.23065 -0.132119,0.30007 -0.13212,0.0672 -0.371726,0.0672 z m -1.195793,-0.3471 h 1.10846 q -0.02239,-0.3135 -0.170188,-0.46801 -0.145555,-0.15676 -0.385162,-0.15676 -0.228409,0 -0.376204,0.159 -0.145555,0.15675 -0.176906,0.46577 z"
           style="font-style:normal;font-variant:normal;font-weight:normal;font-stretch:normal;font-size:4.58611107px;font-family:'Arial Rounded MT Bold';-inkscape-font-specification:'Arial Rounded MT Bold, ';stroke-width:0.26458332"
           id="path1582" />
        <path
           d="m 72.26929,194.29175 v 0.51056 q 0,0.18587 -0.08733,0.27992 -0.08733,0.0918 -0.221691,0.0918 -0.13212,0 -0.217214,-0.094 -0.08509,-0.0941 -0.08509,-0.27768 v -1.70187 q 0,-0.41204 0.297829,-0.41204 0.152273,0 0.219452,0.0963 0.06718,0.0963 0.0739,0.2844 0.109726,-0.18811 0.223931,-0.2844 0.116444,-0.0963 0.309025,-0.0963 0.192581,0 0.373965,0.0963 0.181384,0.0963 0.181384,0.25529 0,0.11196 -0.07837,0.18586 -0.07614,0.0717 -0.16571,0.0717 -0.03359,0 -0.163469,-0.0403 -0.127641,-0.0426 -0.226171,-0.0426 -0.134359,0 -0.219452,0.0717 -0.08509,0.0694 -0.13212,0.20826 -0.04702,0.13883 -0.06494,0.33141 -0.01791,0.19035 -0.01791,0.46578 z"
           style="font-style:normal;font-variant:normal;font-weight:normal;font-stretch:normal;font-size:4.58611107px;font-family:'Arial Rounded MT Bold';-inkscape-font-specification:'Arial Rounded MT Bold, ';stroke-width:0.26458332"
           id="path1584" />
      </g>
      <g
         transform="translate(41.658866,9.8667537)"
         id="g1561">
        <path
           style="opacity:1;fill:#c8beb7;fill-opacity:1;fill-rule:nonzero;stroke:#000006;stroke-width:0.285;stroke-miterlimit:4;stroke-dasharray:none;stroke-opacity:1"
           d="M 33.031,165.05157 A 11.90625,11.90625 0 0 1 21.12475,176.95782 11.90625,11.90625 0 0 1 9.2185001,165.05157 11.90625,11.90625 0 0 1 21.12475,153.14532 11.90625,11.90625 0 0 1 33.031,165.05157 Z"
           id="path1465" />
        <g
           style="fill:#000000"
           id="g1555"
           transform="matrix(1.5654514,0,0,1.5434032,3.2563342,144.60149)">
          <path
             id="path1541"
             d="M 0,0 H 24 V 24 H 0 Z"
             inkscape:connector-curvature="0"
             style="fill:none" />
          <path
             id="path1543"
             d="M 7.88,3.39 6.6,1.86 2,5.71 3.29,7.24 Z M 22,5.72 17.4,1.86 16.11,3.39 20.71,7.25 Z M 12,4 c -4.97,0 -9,4.03 -9,9 0,4.97 4.02,9 9,9 4.97,0 9,-4.03 9,-9 0,-4.97 -4.03,-9 -9,-9 z m 0,16 C 8.13,20 5,16.87 5,13 5,9.13 8.13,6 12,6 c 3.87,0 7,3.13 7,7 0,3.87 -3.13,7 -7,7 z M 13,9 h -2 v 3 H 8 v 2 h 3 v 3 h 2 v -3 h 3 v -2 h -3 z"
             inkscape:connector-curvature="0" />
        </g>
      </g>
    </g>
  </g>
</svg>
