<?xml version="1.0" encoding="UTF-8" standalone="no"?>
<!-- Created with Inkscape (http://www.inkscape.org/) -->

<svg
   xmlns:dc="http://purl.org/dc/elements/1.1/"
   xmlns:cc="http://creativecommons.org/ns#"
   xmlns:rdf="http://www.w3.org/1999/02/22-rdf-syntax-ns#"
   xmlns:svg="http://www.w3.org/2000/svg"
   xmlns="http://www.w3.org/2000/svg"
   xmlns:sodipodi="http://sodipodi.sourceforge.net/DTD/sodipodi-0.dtd"
   xmlns:inkscape="http://www.inkscape.org/namespaces/inkscape"
   width="42.333332mm"
   height="42.333332mm"
   viewBox="0 0 42.333332 42.333332"
   version="1.1"
   id="svg64"
   inkscape:version="0.92.2 5c3e80d, 2017-08-06"
   sodipodi:docname="zurueck_Pikto.svg"
   inkscape:export-filename="/Users/Denise/Desktop/ProjektarbeitWS17/pic/zurueck_Freigestellt.png"
   inkscape:export-xdpi="96"
   inkscape:export-ydpi="96">
  <defs
     id="defs58">
    <inkscape:path-effect
       effect="bspline"
       id="path-effect879"
       is_visible="true"
       weight="33.333333"
       steps="2"
       helper_size="0"
       apply_no_weight="true"
       apply_with_weight="true"
       only_selected="false" />
    <inkscape:path-effect
       effect="bspline"
       id="path-effect875"
       is_visible="true"
       weight="33.333333"
       steps="2"
       helper_size="0"
       apply_no_weight="true"
       apply_with_weight="true"
       only_selected="false" />
  </defs>
  <sodipodi:namedview
     id="base"
     pagecolor="#ffffff"
     bordercolor="#666666"
     borderopacity="1.0"
     inkscape:pageopacity="0.0"
     inkscape:pageshadow="2"
     inkscape:zoom="1.4"
     inkscape:cx="-62.552806"
     inkscape:cy="52.008"
     inkscape:document-units="mm"
     inkscape:current-layer="layer1"
     showgrid="true"
     inkscape:window-width="1440"
     inkscape:window-height="808"
     inkscape:window-x="0"
     inkscape:window-y="0"
     inkscape:window-maximized="1">
    <inkscape:grid
       type="xygrid"
       id="grid871" />
  </sodipodi:namedview>
  <metadata
     id="metadata61">
    <rdf:RDF>
      <cc:Work
         rdf:about="">
        <dc:format>image/svg+xml</dc:format>
        <dc:type
           rdf:resource="http://purl.org/dc/dcmitype/StillImage" />
        <dc:title />
      </cc:Work>
    </rdf:RDF>
  </metadata>
  <g
     inkscape:label="Ebene 1"
     inkscape:groupmode="layer"
     id="layer1"
     transform="translate(-42.291416,-154.46825)">
    <path
       style="fill:none;stroke:#000000;stroke-width:0.63499999;stroke-miterlimit:4;stroke-dasharray:none;stroke-opacity:1"
       d="m 47.741673,154.46825 h 31.432819 c 3.019442,0 5.450256,2.43081 5.450256,5.45025 v 31.43282 c 0,3.01944 -2.430814,5.45026 -5.450256,5.45026 H 47.741673 c -3.019443,0 -5.450257,-2.43082 -5.450257,-5.45026 V 159.9185 c 0,-3.01944 2.430814,-5.45025 5.450257,-5.45025 z"
       id="rect66" />
    <path
       id="path977"
       d="m 87.923946,169.82714 h -46.99611 v 26.09492 h 46.99611 z"
       inkscape:connector-curvature="0"
       style="fill:none;fill-opacity:1;stroke-width:2.59581208" />
    <path
       id="path979"
       d="m 61.02534,164.60429 0.07956,5.36973 h 19.53964 v 9.25305 H 61.185126 l 0.07956,5.32176 -14.993102,-9.87632 14.752415,-10.06802 h 0.0016 -6.7e-5 z"
       inkscape:connector-curvature="0"
       style="fill:#030000;fill-opacity:0;stroke:#000000;stroke-width:0.99599999;stroke-linecap:round;stroke-linejoin:round;stroke-miterlimit:4;stroke-dasharray:none;stroke-opacity:1" />
    <g
       aria-label="zurück"
       style="font-style:normal;font-weight:normal;font-size:10.58333302px;line-height:1.25;font-family:sans-serif;letter-spacing:0px;word-spacing:0px;fill:#000000;fill-opacity:1;stroke:none;stroke-width:0.26458332"
       id="text991"
       transform="translate(-1.099085)">
      <path
         d="m 59.085406,191.89781 -1.119656,1.25177 h 1.198032 q 0.145555,0 0.219452,0.0694 0.0739,0.0672 0.0739,0.17467 0,0.10301 -0.0739,0.16795 -0.07166,0.0649 -0.219452,0.0649 h -1.657091 q -0.174667,0 -0.262,-0.0761 -0.08509,-0.0761 -0.08509,-0.20826 0,-0.0784 0.06046,-0.15675 0.06046,-0.0806 0.250803,-0.29335 0.201538,-0.22393 0.365008,-0.40531 0.165709,-0.18139 0.306785,-0.33814 0.141077,-0.15899 0.232889,-0.26872 0.09405,-0.10972 0.150034,-0.1881 h -0.909161 q -0.188102,0 -0.284393,-0.0336 -0.09629,-0.0336 -0.09629,-0.1769 0,-0.10525 0.07166,-0.16795 0.0739,-0.0627 0.208256,-0.0627 h 1.404049 q 0.19482,0 0.297828,0.0582 0.105248,0.056 0.105248,0.20378 0,0.0493 -0.02015,0.103 -0.02015,0.0515 -0.04479,0.0851 -0.02463,0.0336 -0.06718,0.0829 -0.04255,0.047 -0.105247,0.11421 z"
         style="font-style:normal;font-variant:normal;font-weight:normal;font-stretch:normal;font-size:4.58611107px;font-family:'Arial Rounded MT Bold';-inkscape-font-specification:'Arial Rounded MT Bold, ';stroke-width:0.26458332"
         id="path993"
         inkscape:connector-curvature="0" />
      <path
         d="m 61.403094,193.33769 v -0.0784 q -0.109726,0.13884 -0.230649,0.23289 -0.120923,0.0941 -0.264239,0.13884 -0.143316,0.047 -0.32694,0.047 -0.221692,0 -0.398597,-0.0918 -0.174667,-0.0918 -0.270957,-0.25304 -0.114205,-0.19482 -0.114205,-0.55983 v -1.21147 q 0,-0.18362 0.08285,-0.2732 0.08285,-0.0918 0.219452,-0.0918 0.138838,0 0.223931,0.0918 0.08509,0.0918 0.08509,0.2732 v 0.97858 q 0,0.21273 0.03583,0.35829 0.03583,0.14332 0.127641,0.22617 0.09405,0.0806 0.253042,0.0806 0.154513,0 0.291111,-0.0918 0.136598,-0.0918 0.199299,-0.2396 0.0515,-0.12988 0.0515,-0.56879 v -0.74345 q 0,-0.18138 0.08509,-0.2732 0.08509,-0.0918 0.221692,-0.0918 0.136598,0 0.219452,0.0918 0.08285,0.0896 0.08285,0.2732 v 1.7713 q 0,0.17466 -0.08061,0.262 -0.07838,0.0873 -0.203778,0.0873 -0.125401,0 -0.208256,-0.0896 -0.08061,-0.0918 -0.08061,-0.25528 z"
         style="font-style:normal;font-variant:normal;font-weight:normal;font-stretch:normal;font-size:4.58611107px;font-family:'Arial Rounded MT Bold';-inkscape-font-specification:'Arial Rounded MT Bold, ';stroke-width:0.26458332"
         id="path995"
         inkscape:connector-curvature="0" />
      <path
         d="m 63.190065,192.80025 v 0.51056 q 0,0.18587 -0.08733,0.27992 -0.08733,0.0918 -0.221692,0.0918 -0.132119,0 -0.217213,-0.094 -0.08509,-0.0941 -0.08509,-0.27768 v -1.70187 q 0,-0.41204 0.297828,-0.41204 0.152274,0 0.219453,0.0963 0.06718,0.0963 0.0739,0.2844 0.109726,-0.18811 0.223931,-0.2844 0.116445,-0.0963 0.309025,-0.0963 0.192581,0 0.373966,0.0963 0.181384,0.0963 0.181384,0.25528 0,0.11197 -0.07838,0.18587 -0.07614,0.0717 -0.165709,0.0717 -0.03359,0 -0.16347,-0.0403 -0.127641,-0.0426 -0.22617,-0.0426 -0.134359,0 -0.219453,0.0717 -0.08509,0.0694 -0.132119,0.20826 -0.04703,0.13883 -0.06494,0.33141 -0.01792,0.19034 -0.01792,0.46578 z"
         style="font-style:normal;font-variant:normal;font-weight:normal;font-stretch:normal;font-size:4.58611107px;font-family:'Arial Rounded MT Bold';-inkscape-font-specification:'Arial Rounded MT Bold, ';stroke-width:0.26458332"
         id="path997"
         inkscape:connector-curvature="0" />
      <path
         d="m 66.065342,193.33769 v -0.0784 q -0.109727,0.13884 -0.23065,0.23289 -0.120922,0.0941 -0.264238,0.13884 -0.143316,0.047 -0.32694,0.047 -0.221692,0 -0.398598,-0.0918 -0.174666,-0.0918 -0.270956,-0.25304 -0.114205,-0.19482 -0.114205,-0.55983 v -1.21147 q 0,-0.18362 0.08285,-0.2732 0.08285,-0.0918 0.219453,-0.0918 0.138837,0 0.223931,0.0918 0.08509,0.0918 0.08509,0.2732 v 0.97858 q 0,0.21273 0.03583,0.35829 0.03583,0.14332 0.127641,0.22617 0.09405,0.0806 0.253042,0.0806 0.154513,0 0.291111,-0.0918 0.136598,-0.0918 0.199298,-0.2396 0.0515,-0.12988 0.0515,-0.56879 v -0.74345 q 0,-0.18138 0.08509,-0.2732 0.08509,-0.0918 0.221692,-0.0918 0.136598,0 0.219453,0.0918 0.08285,0.0896 0.08285,0.2732 v 1.7713 q 0,0.17466 -0.08061,0.262 -0.07838,0.0873 -0.203777,0.0873 -0.125402,0 -0.208256,-0.0896 -0.08061,-0.0918 -0.08061,-0.25528 z m -1.065913,-2.44085 q -0.09629,0 -0.174666,-0.0672 -0.07614,-0.0672 -0.07614,-0.18363 0,-0.11196 0.0739,-0.18138 0.0739,-0.0717 0.176906,-0.0717 0.100769,0 0.176906,0.0649 0.07614,0.0627 0.07614,0.1881 0,0.11645 -0.07614,0.18363 -0.07614,0.0672 -0.176906,0.0672 z m 0.873332,-0.50385 q 0.0627,0 0.123162,0.0336 0.06046,0.0336 0.09405,0.0941 0.03359,0.0605 0.03359,0.1254 0,0.11645 -0.0739,0.18363 -0.0739,0.0672 -0.176905,0.0672 -0.09853,0 -0.176906,-0.0672 -0.07614,-0.0672 -0.07614,-0.18363 0,-0.10077 0.07614,-0.1769 0.07614,-0.0761 0.176906,-0.0761 z"
         style="font-style:normal;font-variant:normal;font-weight:normal;font-stretch:normal;font-size:4.58611107px;font-family:'Arial Rounded MT Bold';-inkscape-font-specification:'Arial Rounded MT Bold, ';stroke-width:0.26458332"
         id="path999"
         inkscape:connector-curvature="0" />
      <path
         d="m 69.442224,192.92565 q 0,0.11421 -0.06942,0.24409 -0.06718,0.12988 -0.208256,0.24856 -0.138837,0.11644 -0.351572,0.1881 -0.212734,0.0717 -0.479212,0.0717 -0.566546,0 -0.884529,-0.32918 -0.317982,-0.33142 -0.317982,-0.88677 0,-0.3762 0.145555,-0.66507 0.145556,-0.28887 0.420991,-0.44562 0.275435,-0.159 0.658358,-0.159 0.237367,0 0.434426,0.0694 0.199299,0.0694 0.335897,0.17915 0.138837,0.10972 0.210495,0.23513 0.0739,0.12316 0.0739,0.23064 0,0.10973 -0.08286,0.18587 -0.08061,0.0761 -0.197059,0.0761 -0.07614,0 -0.127641,-0.0381 -0.04927,-0.0403 -0.111966,-0.12764 -0.111965,-0.17019 -0.235127,-0.25529 -0.120923,-0.0851 -0.309026,-0.0851 -0.270956,0 -0.436665,0.21273 -0.165709,0.2105 -0.165709,0.57775 0,0.17242 0.04255,0.31798 0.04255,0.14332 0.123163,0.24632 0.08062,0.10077 0.19482,0.15452 0.114205,0.0515 0.250803,0.0515 0.183623,0 0.313503,-0.0851 0.13212,-0.0851 0.232889,-0.25976 0.05598,-0.10301 0.120923,-0.16123 0.06494,-0.0582 0.158991,-0.0582 0.111965,0 0.185863,0.0851 0.0739,0.0851 0.0739,0.18138 z"
         style="font-style:normal;font-variant:normal;font-weight:normal;font-stretch:normal;font-size:4.58611107px;font-family:'Arial Rounded MT Bold';-inkscape-font-specification:'Arial Rounded MT Bold, ';stroke-width:0.26458332"
         id="path1001"
         inkscape:connector-curvature="0" />
      <path
         d="m 71.329964,193.40263 -0.539675,-0.88677 -0.331418,0.3135 v 0.48593 q 0,0.17691 -0.09405,0.2732 -0.09181,0.094 -0.212734,0.094 -0.141077,0 -0.221692,-0.094 -0.08062,-0.0941 -0.08062,-0.27768 v -2.60656 q 0,-0.20377 0.07838,-0.30902 0.07838,-0.10749 0.223932,-0.10749 0.141076,0 0.223931,0.0963 0.08285,0.0963 0.08285,0.2844 v 1.48242 l 0.687469,-0.72106 q 0.127641,-0.13436 0.19482,-0.18362 0.06718,-0.0493 0.16347,-0.0493 0.114205,0 0.190342,0.0739 0.07614,0.0717 0.07614,0.18138 0,0.13436 -0.248564,0.35829 l -0.3247,0.29783 0.627008,0.9853 q 0.06942,0.10973 0.09853,0.16795 0.03135,0.056 0.03135,0.10749 0,0.14555 -0.08062,0.23064 -0.07837,0.0829 -0.208256,0.0829 -0.111965,0 -0.172427,-0.0605 -0.06046,-0.0605 -0.163469,-0.21945 z"
         style="font-style:normal;font-variant:normal;font-weight:normal;font-stretch:normal;font-size:4.58611107px;font-family:'Arial Rounded MT Bold';-inkscape-font-specification:'Arial Rounded MT Bold, ';stroke-width:0.26458332"
         id="path1003"
         inkscape:connector-curvature="0" />
    </g>
  </g>
</svg>
